<?xml version="1.0" encoding="UTF-8"?>
<svg id="Vrstva_1" data-name="Vrstva 1" xmlns="http://www.w3.org/2000/svg" xmlns:xlink="http://www.w3.org/1999/xlink" viewBox="0 0 280.63 595.28">
  <defs>
    <style>
      .cls-1 {
        fill: url(#Nepojmenovaný_přechod_3);
      }

      .cls-2 {
        mask: url(#mask-5);
      }

      .cls-3 {
        mask: url(#mask-1);
      }

      .cls-4 {
        fill: url(#Nepojmenovaný_přechod_3-2);
      }

      .cls-5 {
        opacity: .15;
      }

      .cls-5, .cls-6, .cls-7 {
        fill: #76b82a;
      }

      .cls-8 {
        fill: #fff;
      }

      .cls-9 {
        mask: url(#mask);
      }

      .cls-10 {
        mask: url(#mask-2);
      }

      .cls-11 {
        fill: url(#Nepojmenovaný_přechod_3-4);
      }

      .cls-12 {
        fill: url(#Nepojmenovaný_přechod_3-3);
      }

      .cls-13 {
        fill: url(#Nepojmenovaný_přechod_3-6);
      }

      .cls-14 {
        fill: #436829;
      }

      .cls-15 {
        mask: url(#mask-4);
      }

      .cls-16 {
        fill: url(#Nepojmenovaný_přechod_3-5);
      }

      .cls-7 {
        opacity: .05;
      }

      .cls-17 {
        mask: url(#mask-3);
      }
    </style>
    <linearGradient id="Nepojmenovaný_přechod_3" data-name="Nepojmenovaný přechod 3" x1="672.87" y1="369.69" x2="926.01" y2="369.69" gradientTransform="translate(-622.89 739.39) scale(1 -1)" gradientUnits="userSpaceOnUse">
      <stop offset="0" stop-color="#fff"/>
      <stop offset="1" stop-color="#1d1d1b"/>
    </linearGradient>
    <mask id="mask" x="4.12" y="345.6" width="299" height="48.19" maskUnits="userSpaceOnUse">
      <rect class="cls-1" x="49.98" y="345.6" width="253.14" height="48.19" transform="translate(353.1 739.39) rotate(-180)"/>
    </mask>
    <linearGradient id="Nepojmenovaný_přechod_3-2" data-name="Nepojmenovaný přechod 3" x1="672.87" y1="264.26" x2="926.01" y2="264.26" gradientTransform="translate(-622.89 528.53) scale(1 -1)" xlink:href="#Nepojmenovaný_přechod_3"/>
    <mask id="mask-1" x="4.12" y="240.17" width="299" height="48.19" maskUnits="userSpaceOnUse">
      <rect class="cls-4" x="49.98" y="240.17" width="253.14" height="48.19" transform="translate(353.1 528.53) rotate(-180)"/>
    </mask>
    <linearGradient id="Nepojmenovaný_přechod_3-3" data-name="Nepojmenovaný přechod 3" x1="672.87" y1="162.88" x2="926.01" y2="162.88" gradientTransform="translate(-622.89 325.77) scale(1 -1)" xlink:href="#Nepojmenovaný_přechod_3"/>
    <mask id="mask-2" x="4.12" y="138.79" width="299" height="48.19" maskUnits="userSpaceOnUse">
      <rect class="cls-12" x="49.98" y="138.79" width="253.14" height="48.19" transform="translate(353.1 325.77) rotate(-180)"/>
    </mask>
    <linearGradient id="Nepojmenovaný_přechod_3-4" data-name="Nepojmenovaný přechod 3" x1="672.87" y1="62.93" x2="926.01" y2="62.93" gradientTransform="translate(-622.89 125.86) scale(1 -1)" xlink:href="#Nepojmenovaný_přechod_3"/>
    <mask id="mask-3" x="4.12" y="38.84" width="299" height="48.19" maskUnits="userSpaceOnUse">
      <rect class="cls-11" x="49.98" y="38.84" width="253.14" height="48.19" transform="translate(353.1 125.86) rotate(-180)"/>
    </mask>
    <linearGradient id="Nepojmenovaný_přechod_3-5" data-name="Nepojmenovaný přechod 3" x1="672.87" y1="572.19" x2="926.01" y2="572.19" gradientTransform="translate(-622.89 1144.37) scale(1 -1)" xlink:href="#Nepojmenovaný_přechod_3"/>
    <mask id="mask-4" x="4.12" y="548.09" width="299" height="48.19" maskUnits="userSpaceOnUse">
      <rect class="cls-16" x="49.98" y="548.09" width="253.14" height="48.19" transform="translate(353.1 1144.37) rotate(-180)"/>
    </mask>
    <linearGradient id="Nepojmenovaný_přechod_3-6" data-name="Nepojmenovaný přechod 3" x1="672.87" y1="470" x2="926.01" y2="470" gradientTransform="translate(-622.89 940) scale(1 -1)" xlink:href="#Nepojmenovaný_přechod_3"/>
    <mask id="mask-5" x="4.12" y="445.91" width="299" height="48.19" maskUnits="userSpaceOnUse">
      <rect class="cls-13" x="49.98" y="445.91" width="253.14" height="48.19" transform="translate(353.1 940) rotate(-180)"/>
    </mask>
  </defs>
  <rect class="cls-8" width="280.63" height="595.28"/>
  <g>
    <path class="cls-6" d="M23.56,23.59h7.82v1.99h-5.44v2.07h4.71v1.89h-4.71v2.42h5.53v2.04h-7.91v-10.42Z"/>
    <path class="cls-6" d="M35.5,28.57l-3.21-4.97h2.73l.84,1.42c.48.8,1.05,2.1,1.05,2.1h.03s.59-1.3,1.06-2.1l.85-1.42h2.61l-3.15,4.96,3.47,5.46h-2.83l-1.05-1.83c-.46-.81-1.02-2.13-1.02-2.13h-.03s-.57,1.3-1.06,2.13l-1.08,1.83h-2.72l3.5-5.45Z"/>
    <path class="cls-6" d="M42.63,23.59h7.82v1.99h-5.44v2.07h4.71v1.89h-4.71v2.42h5.53v2.04h-7.91v-10.42Z"/>
    <path class="cls-6" d="M51.74,23.59h3.21l1.3,4.34c.38,1.3.78,3.71.78,3.71h.04s.39-2.41.77-3.71l1.27-4.34h3.25v10.42h-2.2v-4.66c0-1.32.17-3.75.17-3.75h-.03s-.45,2.23-.81,3.46l-1.48,4.96h-1.96l-1.5-4.96c-.36-1.23-.81-3.46-.81-3.46h-.03s.17,2.44.17,3.75v4.66h-2.14v-10.42Z"/>
    <path class="cls-6" d="M63.85,23.59h4.64c1.23,0,2.16.34,2.79.97s.99,1.47.99,2.49c0,1.98-1.34,3.35-3.5,3.35h-2.49v3.61h-2.42v-10.42ZM66.27,28.51h2.03c1.01,0,1.55-.57,1.55-1.46s-.56-1.43-1.54-1.43h-2.05v2.89Z"/>
    <path class="cls-6" d="M73.19,23.59h2.38v8.38h4.8v2.04h-7.19v-10.42Z"/>
    <path class="cls-6" d="M81.38,23.59h7.82v1.99h-5.44v2.07h4.71v1.89h-4.71v2.42h5.53v2.04h-7.91v-10.42Z"/>
    <path class="cls-6" d="M89.96,30.72h2.41c.13,1.13.87,1.64,2.21,1.64.92,0,1.79-.36,1.79-1.22,0-.91-.88-1.11-2.4-1.46-2.03-.46-3.68-.97-3.68-3.14s1.76-3.14,4.06-3.14,3.92,1.06,4.08,3.11h-2.34c-.13-.81-.77-1.29-1.81-1.29-.98,0-1.64.42-1.64,1.08,0,.81.9.99,2.54,1.36,1.88.42,3.6,1.04,3.6,3.24s-1.82,3.36-4.2,3.36c-2.79,0-4.55-1.29-4.62-3.54Z"/>
  </g>
  <rect class="cls-7" x="14.71" y="157.35" width="251.56" height="100.91"/>
  <rect class="cls-5" x="14.71" y="56.96" width="251.56" height="100.39"/>
  <rect class="cls-7" x="14.71" y="364.16" width="251.56" height="100.31"/>
  <rect class="cls-5" x="14.71" y="463.53" width="251.56" height="103.13"/>
  <rect class="cls-5" x="14.71" y="258.29" width="251.56" height="105.87"/>
  <g>
    <path class="cls-14" d="M149.32,73.56v-.57h1.57v.53c0,.74.32,1.02.88,1.02s.83-.34.83-.94v-5.23h1.71v5.27c0,.62-.15,1.12-.47,1.5-.4.5-1.07.81-1.97.81-1.7,0-2.55-.92-2.55-2.39Z"/>
    <path class="cls-14" d="M155.13,73.16c0-1.6,1.12-2.82,2.82-2.82s2.8,1.22,2.8,2.82-1.11,2.82-2.8,2.82-2.82-1.23-2.82-2.82ZM159.16,73.16c0-1.01-.44-1.7-1.22-1.7s-1.22.69-1.22,1.7.42,1.68,1.22,1.68,1.22-.68,1.22-1.68Z"/>
    <path class="cls-14" d="M163.1,71.26h.03c.32-.57.86-.91,1.6-.91,1.17,0,1.85.78,1.85,1.97v3.5h-1.56v-3.2c0-.58-.31-.97-.89-.97-.61,0-1.02.49-1.02,1.17v3h-1.57v-7.44h1.57v2.05c0,.05,0,.48,0,.83Z"/>
    <path class="cls-14" d="M169.1,71.31h.03c.33-.64.9-.96,1.64-.96,1.17,0,1.85.78,1.85,1.97v3.5h-1.56v-3.2c0-.58-.31-.97-.89-.97-.61,0-1.02.49-1.02,1.17v3h-1.57v-5.32h1.52v.81Z"/>
    <path class="cls-14" d="M176.16,68.38h3.1c2.09,0,3.43,1.49,3.43,3.77s-1.25,3.67-3.53,3.67h-3v-7.44ZM179.03,74.37c1.29,0,1.92-.81,1.92-2.23s-.64-2.33-1.89-2.33h-1.19v4.56h1.16Z"/>
    <path class="cls-14" d="M183.26,73.16c0-1.6,1.11-2.82,2.73-2.82.76,0,1.36.25,1.83.68.6.58.87,1.48.86,2.53h-3.88c.1.8.53,1.28,1.29,1.28.49,0,.8-.19.97-.52h1.52c-.27.94-1.14,1.66-2.51,1.66-1.74,0-2.81-1.22-2.81-2.81ZM184.81,72.64h2.27c-.05-.74-.47-1.19-1.09-1.19-.72,0-1.08.46-1.18,1.19Z"/>
    <path class="cls-14" d="M189.22,73.16c0-1.6,1.11-2.82,2.73-2.82.76,0,1.36.25,1.83.68.6.58.87,1.48.86,2.53h-3.88c.1.8.53,1.28,1.29,1.28.49,0,.8-.19.97-.52h1.52c-.27.94-1.14,1.66-2.51,1.66-1.74,0-2.81-1.22-2.81-2.81ZM190.77,72.64h2.27c-.05-.74-.47-1.19-1.09-1.19-.72,0-1.08.46-1.18,1.19Z"/>
    <path class="cls-14" d="M196.94,71.45h.03c.34-.74.82-1.04,1.48-1.04.15,0,.26.01.33.04v1.37h-.04c-.11-.02-.22-.03-.33-.03-.85,0-1.41.52-1.41,1.56v2.47h-1.57v-5.32h1.51v.95Z"/>
    <path class="cls-14" d="M199.18,73.16c0-1.6,1.11-2.82,2.73-2.82.76,0,1.36.25,1.83.68.6.58.87,1.48.86,2.53h-3.88c.1.8.53,1.28,1.29,1.28.49,0,.8-.19.97-.52h1.52c-.27.94-1.14,1.66-2.51,1.66-1.74,0-2.81-1.22-2.81-2.81ZM200.73,72.64h2.27c-.05-.74-.47-1.19-1.09-1.19-.72,0-1.08.46-1.18,1.19Z"/>
    <path class="cls-14" d="M207.58,73.78c0-.84.5-1.51,1.41-1.79v-.03c-.76-.27-1.11-.79-1.11-1.45,0-1.18,1.04-1.97,2.64-1.97s2.62.74,2.62,1.94c0,.64-.36,1.18-1.1,1.44v.03c.94.26,1.42.95,1.42,1.79,0,1.42-1.23,2.24-2.93,2.24s-2.95-.82-2.95-2.2ZM211.81,73.68c0-.69-.48-1.12-1.28-1.12s-1.3.43-1.3,1.12.49,1.08,1.3,1.08,1.28-.43,1.28-1.08ZM211.6,70.6c0-.55-.39-.92-1.09-.92s-1.09.37-1.09.92.4.9,1.09.9,1.09-.36,1.09-.9Z"/>
    <path class="cls-14" d="M214.29,68.38h3.54c1.45,0,2.54.77,2.54,2.13,0,.87-.43,1.5-1.38,1.81v.03c.74.23,1.07.64,1.17,1.44.14,1.01.08,1.85.32,1.95v.08h-1.68c-.2-.11-.18-.9-.27-1.72-.09-.74-.46-1.12-1.28-1.12h-1.26v2.84h-1.7v-7.44ZM215.99,71.72h1.51c.76,0,1.17-.39,1.17-.98s-.37-1.01-1.12-1.01h-1.56v1.99Z"/>
    <path class="cls-14" d="M224.1,73.83c.66-.73,1.6-1.3,2.32-1.82.46-.33.73-.65.73-1.15,0-.6-.36-1-.98-1-.37,0-.64.1-.83.33-.23.25-.33.61-.33,1.04h-1.55c0-.71.15-1.24.48-1.7.41-.6,1.18-.99,2.28-.99,1.66,0,2.58,1,2.58,2.27,0,.82-.37,1.36-.89,1.8-.74.67-1.82,1.12-2.38,1.81v.03h3.26v1.36h-5.44c0-.88.28-1.45.75-1.98Z"/>
    <path class="cls-14" d="M229.35,73.78c0-.84.5-1.51,1.41-1.79v-.03c-.76-.27-1.11-.79-1.11-1.45,0-1.18,1.04-1.97,2.64-1.97s2.62.74,2.62,1.94c0,.64-.36,1.18-1.1,1.44v.03c.94.26,1.42.95,1.42,1.79,0,1.42-1.23,2.24-2.93,2.24s-2.95-.82-2.95-2.2ZM233.58,73.68c0-.69-.48-1.12-1.28-1.12s-1.3.43-1.3,1.12.49,1.08,1.3,1.08,1.28-.43,1.28-1.08ZM233.37,70.6c0-.55-.39-.92-1.09-.92s-1.09.37-1.09.92.4.9,1.09.9,1.09-.36,1.09-.9Z"/>
    <path class="cls-14" d="M235.79,72.27c0-2.27,1.26-3.72,3.1-3.72s3.1,1.44,3.1,3.72-1.23,3.72-3.11,3.72-3.09-1.45-3.09-3.72ZM240.31,72.27c0-1.46-.41-2.45-1.42-2.45s-1.42.99-1.42,2.45.42,2.43,1.42,2.43,1.42-.97,1.42-2.43Z"/>
  </g>
  <g>
    <path class="cls-14" d="M150.04,141.54v-1.38h5.4v1.38h-5.4ZM152,143.47v-5.24h1.47v5.24h-1.47Z"/>
    <path class="cls-14" d="M160.17,144.96c-.73,0-1.35-.15-1.88-.45-.53-.3-.94-.74-1.23-1.33-.29-.59-.44-1.3-.44-2.15,0-.92.17-1.7.52-2.34.34-.63.82-1.12,1.43-1.45.61-.33,1.31-.5,2.11-.5.42,0,.82.05,1.2.14.39.09.72.23,1,.4l-.68,1.35c-.22-.15-.45-.25-.7-.31-.25-.06-.51-.08-.78-.08-.68,0-1.22.21-1.63.63-.41.42-.61,1.03-.61,1.84,0,.14,0,.29.01.45,0,.17.03.33.07.5l-.51-.48c.14-.29.33-.54.56-.74.23-.2.5-.35.81-.45s.66-.15,1.04-.15c.51,0,.98.1,1.38.31s.74.49.98.86c.25.37.37.8.37,1.3,0,.54-.13,1-.4,1.4s-.62.7-1.08.92c-.45.22-.96.32-1.53.32ZM160.06,143.58c.26,0,.49-.05.69-.14.2-.09.36-.23.47-.41.11-.18.17-.39.17-.62,0-.36-.12-.65-.37-.87-.25-.22-.57-.32-.98-.32-.27,0-.51.05-.71.16s-.37.25-.48.42c-.12.18-.18.38-.18.62,0,.22.06.42.17.6.11.18.27.32.48.42s.45.15.75.15Z"/>
    <path class="cls-14" d="M167.24,144.96c-.65,0-1.23-.16-1.74-.48-.51-.32-.92-.79-1.21-1.39s-.45-1.35-.45-2.23.15-1.62.45-2.23c.3-.61.7-1.07,1.21-1.39.51-.32,1.09-.48,1.74-.48s1.24.16,1.75.48c.51.32.91.79,1.21,1.39.3.61.45,1.35.45,2.23s-.15,1.62-.45,2.23-.7,1.07-1.21,1.39c-.51.32-1.09.48-1.75.48ZM167.24,143.41c.31,0,.58-.09.81-.27s.41-.46.54-.83c.13-.38.2-.87.2-1.46s-.07-1.08-.2-1.46c-.13-.38-.31-.66-.54-.83-.23-.18-.5-.27-.81-.27s-.56.09-.79.27c-.23.18-.42.46-.56.83s-.2.87-.2,1.46.07,1.08.2,1.46.32.66.56.83.5.27.79.27Z"/>
    <path class="cls-14" d="M179.05,144.96c-.61,0-1.18-.1-1.71-.3s-.98-.49-1.37-.86c-.39-.37-.69-.81-.9-1.3-.22-.5-.32-1.05-.32-1.64s.11-1.15.32-1.64c.22-.5.52-.93.91-1.3.39-.37.85-.66,1.37-.86s1.09-.3,1.71-.3c.69,0,1.31.12,1.87.36.56.24,1.03.59,1.41,1.05l-1.19,1.09c-.27-.31-.57-.54-.9-.7-.34-.16-.7-.24-1.09-.24-.37,0-.71.06-1.02.19-.31.12-.58.3-.8.53-.23.23-.4.5-.53.8-.12.31-.19.65-.19,1.03s.06.72.19,1.03.3.58.53.8c.23.23.5.4.8.53.31.12.65.19,1.02.19.39,0,.76-.08,1.09-.24.34-.16.64-.4.9-.71l1.19,1.09c-.38.46-.85.81-1.41,1.05-.56.24-1.19.36-1.88.36Z"/>
    <path class="cls-14" d="M185.89,144.82l-3.44-7.94h2l2.99,7.03h-1.17l3.04-7.03h1.83l-3.44,7.94h-1.81Z"/>
    <path class="cls-14" d="M193.86,145.95l3.74-10.68h1.56l-3.74,10.68h-1.56Z"/>
    <path class="cls-14" d="M202.59,141.54v-1.38h5.4v1.38h-5.4ZM204.56,143.47v-5.24h1.47v5.24h-1.47Z"/>
    <path class="cls-14" d="M212.27,144.82v-1.19l3.06-2.89c.24-.22.42-.41.54-.58.12-.17.19-.33.23-.48s.06-.29.06-.41c0-.31-.11-.55-.32-.73-.21-.17-.53-.26-.95-.26-.34,0-.65.07-.93.2-.28.14-.52.34-.71.6l-1.33-.86c.29-.45.71-.81,1.26-1.08.54-.26,1.17-.4,1.88-.4.59,0,1.11.09,1.55.28.45.19.79.46,1.04.81.25.35.37.77.37,1.25,0,.25-.04.5-.11.76-.07.26-.2.53-.39.81-.19.28-.47.59-.84.94l-2.54,2.38-.35-.66h4.49v1.5h-6.01Z"/>
    <path class="cls-14" d="M222.57,144.96c-.73,0-1.35-.15-1.88-.45-.53-.3-.94-.74-1.23-1.33-.29-.59-.44-1.3-.44-2.15,0-.92.17-1.7.52-2.34.34-.63.82-1.12,1.43-1.45.61-.33,1.31-.5,2.12-.5.42,0,.82.05,1.2.14.39.09.72.23,1,.4l-.68,1.35c-.22-.15-.45-.25-.7-.31-.25-.06-.51-.08-.78-.08-.68,0-1.22.21-1.63.63-.41.42-.61,1.03-.61,1.84,0,.14,0,.29.01.45,0,.17.03.33.07.5l-.51-.48c.14-.29.33-.54.56-.74.23-.2.5-.35.81-.45.31-.1.66-.15,1.04-.15.51,0,.97.1,1.38.31s.74.49.98.86c.25.37.37.8.37,1.3,0,.54-.13,1-.4,1.4s-.62.7-1.08.92c-.45.22-.96.32-1.53.32ZM222.47,143.58c.26,0,.49-.05.69-.14.2-.09.36-.23.47-.41s.17-.39.17-.62c0-.36-.12-.65-.37-.87-.25-.22-.57-.32-.98-.32-.27,0-.51.05-.71.16s-.37.25-.48.42c-.12.18-.18.38-.18.62,0,.22.06.42.17.6.11.18.27.32.48.42s.45.15.75.15Z"/>
    <path class="cls-14" d="M227.47,144.82v-7.26l.79.79h-2.38v-1.47h3.42v7.94h-1.84Z"/>
    <path class="cls-14" d="M234.4,144.82v-7.94h1.52l4.68,5.71h-.74v-5.71h1.81v7.94h-1.52l-4.68-5.71h.74v5.71h-1.81Z"/>
    <path class="cls-14" d="M243.56,144.82v-7.94h1.52l3.38,5.6h-.8l3.31-5.6h1.53v7.94h-1.71l-.02-5.29h.34l-2.68,4.44h-.82l-2.71-4.44h.37v5.29h-1.71Z"/>
  </g>
  <g>
    <path class="cls-14" d="M154.06,92.11c-.34,0-.66-.06-.95-.17-.29-.11-.55-.28-.76-.49-.21-.21-.38-.45-.5-.73s-.18-.59-.18-.92.06-.64.18-.92.29-.52.5-.73c.21-.21.47-.37.76-.49s.61-.17.96-.17.66.06.95.17.54.28.76.48c.21.21.38.45.5.73s.18.59.18.92-.06.64-.18.92c-.12.28-.29.53-.5.73-.21.21-.47.37-.76.48s-.61.17-.95.17ZM154.06,91.68c.27,0,.52-.05.76-.14.23-.09.43-.23.6-.4.17-.17.3-.37.4-.6.1-.23.14-.48.14-.75s-.05-.52-.14-.75c-.09-.23-.23-.43-.4-.6s-.37-.3-.6-.4c-.23-.09-.48-.14-.76-.14s-.53.05-.76.14c-.23.09-.44.23-.61.4-.17.17-.31.37-.4.6-.09.23-.14.48-.14.75s.05.52.14.75c.1.23.23.43.4.6.17.17.38.3.61.4.23.09.49.14.76.14Z"/>
    <path class="cls-14" d="M157.52,92.07v-4.55h1.7c.38,0,.72.06.99.19.28.12.49.3.64.53.15.23.22.51.22.84s-.08.6-.22.83c-.15.23-.36.41-.64.53-.28.12-.61.19-.99.19h-1.44l.21-.22v1.66h-.48ZM158,90.45l-.21-.23h1.42c.45,0,.8-.1,1.04-.3.24-.2.35-.48.35-.84s-.12-.65-.35-.84c-.24-.2-.58-.3-1.04-.3h-1.42l.21-.23v2.73ZM160.63,92.07l-1.17-1.65h.52l1.18,1.65h-.53Z"/>
    <path class="cls-14" d="M162.22,92.07v-4.55h.48v4.55h-.48Z"/>
    <path class="cls-14" d="M166.17,92.11c-.35,0-.67-.06-.96-.17-.29-.11-.55-.28-.76-.48-.21-.21-.38-.45-.5-.73-.12-.28-.18-.59-.18-.92s.06-.64.18-.92.29-.53.5-.73.47-.37.76-.48c.29-.11.61-.17.96-.17s.66.05.95.16c.29.11.53.27.74.49l-.3.31c-.19-.19-.4-.33-.63-.41-.23-.08-.48-.12-.74-.12-.28,0-.54.05-.78.14-.24.09-.44.23-.62.4-.18.17-.31.37-.41.6-.1.23-.15.48-.15.75s.05.52.15.75c.1.23.23.43.41.6.17.17.38.3.62.4.24.09.49.14.77.14.26,0,.5-.04.74-.12.23-.08.45-.21.64-.4l.27.36c-.22.19-.47.33-.76.43-.29.1-.59.15-.91.15ZM167.38,91.47v-1.68h.46v1.73l-.46-.06Z"/>
    <path class="cls-14" d="M169.21,92.1c-.09,0-.18-.03-.24-.1-.07-.07-.1-.15-.1-.25s.03-.19.1-.25c.07-.06.15-.1.24-.1s.18.03.24.1c.07.06.1.15.1.25s-.03.18-.1.25c-.07.07-.15.1-.24.1Z"/>
  </g>
  <g>
    <path class="cls-14" d="M194.44,92.11c-.34,0-.66-.06-.95-.17s-.54-.28-.76-.49c-.21-.21-.38-.45-.5-.73s-.18-.59-.18-.92.06-.64.18-.92.29-.52.5-.73c.21-.21.47-.37.76-.49s.61-.17.95-.17.66.06.95.17.54.28.76.48c.21.21.38.45.5.73s.18.59.18.92-.06.64-.18.92c-.12.28-.29.53-.5.73-.21.21-.47.37-.76.48s-.61.17-.95.17ZM194.44,91.68c.27,0,.53-.05.76-.14s.43-.23.6-.4c.17-.17.3-.37.4-.6.09-.23.14-.48.14-.75s-.05-.52-.14-.75c-.1-.23-.23-.43-.4-.6-.17-.17-.37-.3-.6-.4-.23-.09-.48-.14-.76-.14s-.53.05-.76.14c-.23.09-.44.23-.61.4s-.31.37-.4.6c-.1.23-.14.48-.14.75s.05.52.14.75c.09.23.23.43.4.6.17.17.38.3.61.4.23.09.49.14.76.14Z"/>
    <path class="cls-14" d="M197.91,92.07v-4.55h1.7c.39,0,.72.06.99.19.28.12.49.3.64.53.15.23.22.51.22.84s-.07.6-.22.83c-.15.23-.36.41-.64.54s-.61.19-.99.19h-1.43l.21-.23v1.66h-.48ZM198.39,90.45l-.21-.23h1.42c.46,0,.8-.1,1.04-.3.24-.2.35-.48.35-.83s-.12-.65-.35-.84c-.24-.2-.58-.3-1.04-.3h-1.42l.21-.23v2.73Z"/>
    <path class="cls-14" d="M203.24,92.07v-4.13h-1.6v-.42h3.68v.42h-1.6v4.13h-.48Z"/>
    <path class="cls-14" d="M205.83,92.1c-.1,0-.18-.03-.24-.1-.07-.07-.1-.15-.1-.25s.03-.19.1-.25c.07-.06.15-.1.24-.1s.18.03.24.1.1.15.1.25-.03.18-.1.25-.15.1-.24.1Z"/>
  </g>
  <rect class="cls-14" x="149.52" y="98.11" width="36.47" height="14.2"/>
  <rect class="cls-14" x="186.75" y="98.11" width="37.75" height="14.2"/>
  <rect class="cls-14" x="149.52" y="113.13" width="36.47" height="14.2"/>
  <rect class="cls-14" x="186.75" y="113.13" width="37.75" height="14.2"/>
  <g>
    <path class="cls-8" d="M156.65,106.46c.48-.53,1.16-.94,1.68-1.32.33-.24.53-.47.53-.84,0-.44-.26-.73-.71-.73-.27,0-.46.07-.6.24-.17.18-.24.44-.24.76h-1.12c0-.52.11-.9.35-1.23.3-.44.86-.72,1.66-.72,1.21,0,1.87.73,1.87,1.65,0,.6-.27.99-.65,1.31-.54.49-1.32.81-1.73,1.31v.02h2.37v.99h-3.95c0-.64.2-1.05.54-1.44Z"/>
    <path class="cls-8" d="M160.53,106.42c0-.61.36-1.1,1.02-1.3v-.02c-.55-.2-.81-.57-.81-1.05,0-.86.75-1.43,1.92-1.43s1.9.54,1.9,1.41c0,.46-.26.86-.8,1.05v.02c.68.19,1.03.69,1.03,1.3,0,1.03-.89,1.63-2.13,1.63s-2.14-.6-2.14-1.6ZM163.6,106.35c0-.5-.35-.81-.93-.81s-.94.31-.94.81.36.78.94.78.93-.31.93-.78ZM163.45,104.1c0-.4-.28-.67-.79-.67s-.79.27-.79.67.29.65.79.65.79-.26.79-.65Z"/>
    <path class="cls-8" d="M165.27,105.32c0-1.65.92-2.7,2.25-2.7s2.25,1.05,2.25,2.7-.89,2.7-2.26,2.7-2.24-1.05-2.24-2.7ZM168.55,105.32c0-1.06-.3-1.78-1.03-1.78s-1.03.72-1.03,1.78.31,1.77,1.03,1.77,1.03-.7,1.03-1.77Z"/>
    <path class="cls-8" d="M172.01,105.21c0-1.61,1.04-2.82,2.65-2.82.6,0,1.11.15,1.48.42.49.36.77.89.83,1.5h-1.23c-.07-.51-.48-.89-1.09-.89-.92,0-1.38.76-1.38,1.79s.54,1.78,1.39,1.78c.66,0,1.07-.43,1.13-.99h1.24c-.04.54-.28,1.04-.65,1.4-.41.4-.96.61-1.71.61-1.58,0-2.65-1.19-2.65-2.8Z"/>
    <path class="cls-8" d="M177.28,102.49h1.29l.8,2.6c.18.6.37,1.59.37,1.59h.01s.19-1,.36-1.59l.79-2.6h1.25l-1.79,5.4h-1.3l-1.79-5.4Z"/>
  </g>
  <g>
    <path class="cls-8" d="M157.09,119.49h-1.2v-.79c.76-.02,1.32-.34,1.45-1.05h.94v5.22h-1.18v-3.38Z"/>
    <path class="cls-8" d="M159.64,122.54c-.41-.33-.62-.83-.62-1.37h1.12c.04.5.32.91,1.01.91.55,0,.87-.29.87-.77s-.34-.73-.95-.73h-.31v-.83h.28c.53,0,.86-.23.86-.65,0-.39-.29-.64-.74-.64-.59,0-.85.39-.88.79h-1.1c.02-.94.73-1.67,2-1.67,1.1,0,1.88.54,1.88,1.45,0,.54-.34.86-.88,1.04h0c.65.2,1.04.62,1.04,1.31,0,1.1-.94,1.61-2.03,1.61-.68,0-1.17-.16-1.55-.45Z"/>
    <path class="cls-8" d="M164.87,119.49h-1.2v-.79c.75-.02,1.32-.34,1.45-1.05h.94v5.22h-1.18v-3.38Z"/>
    <path class="cls-8" d="M168.05,119.49h-1.2v-.79c.76-.02,1.32-.34,1.45-1.05h.94v5.22h-1.18v-3.38Z"/>
    <path class="cls-8" d="M172,117.46h1.26l1.42,2.35c.32.54.74,1.42.74,1.42h.01s-.07-.97-.07-1.58v-2.19h1.18v5.4h-1.27l-1.41-2.32c-.33-.54-.75-1.45-.75-1.45h-.01s.07.97.07,1.59v2.17h-1.18v-5.4Z"/>
    <path class="cls-8" d="M177.46,117.46h1.66l.67,2.25c.2.68.41,1.92.41,1.92h.02s.2-1.25.4-1.92l.66-2.25h1.69v5.4h-1.14v-2.42c0-.68.09-1.95.09-1.95h-.01s-.23,1.15-.42,1.79l-.77,2.57h-1.02l-.78-2.57c-.19-.64-.42-1.79-.42-1.79h-.01s.09,1.26.09,1.95v2.42h-1.11v-5.4Z"/>
  </g>
  <g>
    <path class="cls-8" d="M192.77,119.49h-1.2v-.79c.76-.02,1.32-.34,1.45-1.05h.94v5.22h-1.18v-3.38Z"/>
    <path class="cls-8" d="M194.67,121.4h1.17c.08.39.41.64.9.64.54,0,.92-.37.92-.91s-.39-.89-.89-.89c-.37,0-.65.15-.81.34h-1.11l.54-2.88h3.15v.95h-2.3l-.23,1.14h.01c.24-.26.56-.42,1.07-.42.94,0,1.76.68,1.76,1.77s-.86,1.85-2.06,1.85-2.03-.6-2.11-1.59Z"/>
    <path class="cls-8" d="M201.94,118.67h0s-.66.03-1.25.03h-1.39v-1h3.8v.91c-.94.92-1.79,2.45-1.84,4.26h-1.25c.09-1.87,1.08-3.43,1.94-4.2Z"/>
    <path class="cls-8" d="M204.04,121.43c.48-.53,1.16-.94,1.69-1.32.33-.24.53-.47.53-.84,0-.44-.26-.73-.71-.73-.27,0-.46.07-.6.24-.17.18-.24.44-.24.76h-1.13c0-.52.11-.9.35-1.23.3-.44.86-.72,1.66-.72,1.21,0,1.87.73,1.87,1.65,0,.6-.27.99-.65,1.31-.54.49-1.32.81-1.73,1.31v.02h2.37v.99h-3.95c0-.64.2-1.05.54-1.44Z"/>
    <path class="cls-8" d="M209.91,117.46h1.26l1.42,2.35c.32.54.74,1.42.74,1.42h.01s-.07-.97-.07-1.58v-2.19h1.18v5.4h-1.27l-1.41-2.32c-.33-.54-.75-1.45-.75-1.45h-.01s.07.97.07,1.59v2.17h-1.18v-5.4Z"/>
    <path class="cls-8" d="M215.37,117.46h1.66l.68,2.25c.2.68.41,1.92.41,1.92h.02s.2-1.25.4-1.92l.66-2.25h1.68v5.4h-1.14v-2.42c0-.68.09-1.95.09-1.95h-.01s-.23,1.15-.42,1.79l-.77,2.57h-1.02l-.78-2.57c-.19-.64-.42-1.79-.42-1.79h-.01s.09,1.26.09,1.95v2.42h-1.11v-5.4Z"/>
  </g>
  <g>
    <path class="cls-8" d="M194.01,107.57c-.41-.33-.62-.83-.62-1.37h1.12c.04.5.32.91,1.01.91.55,0,.87-.29.87-.77s-.34-.73-.95-.73h-.31v-.83h.28c.53,0,.86-.23.86-.65,0-.39-.29-.64-.74-.64-.59,0-.85.39-.88.79h-1.1c.02-.94.73-1.67,2-1.67,1.1,0,1.88.54,1.88,1.45,0,.54-.34.86-.88,1.04h0c.65.2,1.04.62,1.04,1.31,0,1.1-.94,1.6-2.03,1.6-.68,0-1.17-.16-1.55-.45Z"/>
    <path class="cls-8" d="M200.63,106.72h-2.43v-1.05l2.43-3.01h1.13v3.19h.77v.87h-.77v1.17h-1.14v-1.17ZM199.74,105.85h.89v-1.25c0-.31.04-.79.04-.79h-.01s-.29.45-.51.72l-.55.69c-.21.26-.6.66-.6.66h0s.45-.03.74-.03Z"/>
    <path class="cls-8" d="M202.83,105.32c0-1.65.92-2.7,2.25-2.7s2.25,1.05,2.25,2.7-.89,2.7-2.26,2.7-2.24-1.05-2.24-2.7ZM206.11,105.32c0-1.06-.3-1.78-1.03-1.78s-1.03.72-1.03,1.78.3,1.77,1.03,1.77,1.03-.7,1.03-1.77Z"/>
    <path class="cls-8" d="M209.57,105.21c0-1.61,1.04-2.82,2.65-2.82.6,0,1.11.15,1.48.42.49.36.77.89.83,1.5h-1.23c-.07-.51-.48-.89-1.09-.89-.92,0-1.38.76-1.38,1.79s.54,1.78,1.39,1.78c.66,0,1.07-.43,1.13-.99h1.24c-.04.54-.28,1.04-.65,1.4-.41.4-.96.61-1.71.61-1.58,0-2.65-1.19-2.65-2.8Z"/>
    <path class="cls-8" d="M214.84,102.49h1.29l.8,2.6c.18.6.37,1.59.37,1.59h.01s.19-1,.36-1.59l.79-2.6h1.25l-1.79,5.4h-1.3l-1.79-5.4Z"/>
  </g>
  <g class="cls-9">
    <rect class="cls-6" x="4.12" y="363.29" width="262.14" height=".88" transform="translate(270.38 727.45) rotate(-180)"/>
  </g>
  <g class="cls-3">
    <rect class="cls-6" x="4.12" y="257.86" width="262.14" height=".88" transform="translate(270.38 516.59) rotate(-180)"/>
  </g>
  <g class="cls-10">
    <rect class="cls-6" x="4.12" y="156.48" width="262.14" height=".88" transform="translate(270.38 313.83) rotate(-180)"/>
  </g>
  <g class="cls-17">
    <rect class="cls-6" x="4.12" y="56.52" width="262.14" height=".88" transform="translate(270.38 113.92) rotate(-180)"/>
  </g>
  <g>
    <path class="cls-14" d="M149.7,169.93h1.74l1.96,3.23c.44.75,1.02,1.96,1.02,1.96h.02s-.09-1.33-.09-2.18v-3.01h1.63v7.44h-1.75l-1.94-3.19c-.45-.75-1.03-1.99-1.03-1.99h-.02s.09,1.34.09,2.19v2.99h-1.63v-7.44Z"/>
    <path class="cls-14" d="M156.87,174.72c0-1.6,1.11-2.82,2.73-2.82.76,0,1.36.25,1.83.68.6.58.87,1.48.86,2.53h-3.88c.1.8.53,1.28,1.29,1.28.49,0,.8-.19.97-.52h1.52c-.27.94-1.14,1.66-2.51,1.66-1.74,0-2.81-1.22-2.81-2.81ZM158.42,174.2h2.27c-.05-.74-.47-1.19-1.09-1.19-.72,0-1.08.46-1.18,1.19Z"/>
    <path class="cls-14" d="M162.63,172.05h1.6l.56,2.07c.17.63.31,1.65.31,1.65h.02s.17-1.03.34-1.67l.54-2.05h1.33l.56,2.05c.18.64.35,1.68.35,1.68h.02s.14-1.02.32-1.66l.57-2.07h1.55l-1.65,5.32h-1.48l-.56-2.17c-.16-.6-.33-1.63-.33-1.63h-.02s-.19,1.02-.35,1.63l-.58,2.17h-1.46l-1.64-5.32Z"/>
    <path class="cls-14" d="M173.82,169.93h1.7v2.87h2.81v-2.87h1.7v7.44h-1.7v-3.15h-2.81v3.15h-1.7v-7.44Z"/>
    <path class="cls-14" d="M180.93,174.72c0-1.6,1.12-2.82,2.82-2.82s2.8,1.22,2.8,2.82-1.11,2.82-2.8,2.82-2.82-1.23-2.82-2.82ZM184.96,174.72c0-1.01-.44-1.7-1.22-1.7s-1.22.69-1.22,1.7.42,1.68,1.22,1.68,1.22-.68,1.22-1.68Z"/>
    <path class="cls-14" d="M187.36,169.93h1.58v7.44h-1.58v-7.44Z"/>
    <path class="cls-14" d="M190.01,169.93h1.58v7.44h-1.58v-7.44Z"/>
    <path class="cls-14" d="M195.87,176.71h-.02c-.35.49-.79.79-1.61.79-1.05,0-1.82-.56-1.82-1.61,0-1.18.93-1.48,2.09-1.62.95-.13,1.34-.28,1.34-.68s-.25-.64-.79-.64c-.6,0-.89.28-.93.7h-1.45c.04-.91.78-1.76,2.36-1.76.68,0,1.16.1,1.53.32.55.32.81.87.81,1.59v2.73c0,.42.06.65.2.74v.09h-1.53c-.08-.12-.15-.35-.18-.65ZM195.89,175.45v-.69c-.23.14-.57.22-.92.3-.69.15-1.02.32-1.02.78s.35.63.78.63c.7,0,1.16-.44,1.16-1.02Z"/>
    <path class="cls-14" d="M199.96,172.86h.03c.33-.64.9-.96,1.64-.96,1.17,0,1.85.78,1.85,1.97v3.5h-1.56v-3.2c0-.58-.31-.97-.89-.97-.61,0-1.02.49-1.02,1.17v3h-1.57v-5.32h1.52v.81Z"/>
    <path class="cls-14" d="M204.23,174.71c0-1.63.92-2.81,2.3-2.81.73,0,1.22.34,1.58.89h.02c-.02-.33-.04-.78-.04-1.23v-1.63h1.57v7.44h-1.51v-.78h-.02c-.31.65-.9.95-1.62.95-1.38,0-2.28-1.07-2.28-2.83ZM208.14,174.71c0-.94-.39-1.62-1.2-1.62-.74,0-1.11.66-1.11,1.61s.37,1.58,1.1,1.58,1.21-.64,1.21-1.57Z"/>
    <path class="cls-14" d="M212.86,169.93h6.14v1.45h-2.22v5.99h-1.71v-5.99h-2.21v-1.45Z"/>
    <path class="cls-14" d="M223.19,171.59v-.02s-.91.06-1.72.06h-1.92v-1.38h5.23v1.25c-1.29,1.27-2.46,3.37-2.54,5.87h-1.72c.12-2.58,1.48-4.72,2.67-5.78Z"/>
    <path class="cls-14" d="M225.47,175.72h1.66v1.64h-1.66v-1.64Z"/>
    <path class="cls-14" d="M228.63,175.38c.66-.73,1.6-1.3,2.32-1.82.46-.33.73-.65.73-1.15,0-.6-.36-1-.98-1-.37,0-.64.1-.83.33-.23.25-.33.61-.33,1.04h-1.55c0-.71.15-1.24.48-1.7.41-.6,1.18-.99,2.28-.99,1.66,0,2.58,1,2.58,2.27,0,.82-.37,1.36-.89,1.8-.74.67-1.82,1.12-2.38,1.81v.03h3.26v1.36h-5.44c0-.88.28-1.45.75-1.98Z"/>
    <path class="cls-14" d="M237.59,171.59v-.02s-.91.06-1.72.06h-1.92v-1.38h5.23v1.25c-1.29,1.27-2.46,3.37-2.54,5.87h-1.72c.12-2.58,1.48-4.72,2.67-5.78Z"/>
    <path class="cls-14" d="M239.65,175.34h1.61c.11.53.56.88,1.24.88.74,0,1.26-.51,1.26-1.25s-.54-1.23-1.23-1.23c-.51,0-.9.21-1.11.47h-1.53l.74-3.97h4.33v1.31h-3.16l-.32,1.57h.02c.33-.36.77-.58,1.47-.58,1.3,0,2.43.94,2.43,2.44s-1.18,2.55-2.84,2.55-2.8-.83-2.91-2.19Z"/>
    <path class="cls-14" d="M246.36,169.93h1.7v2.87h2.81v-2.87h1.7v7.44h-1.7v-3.15h-2.81v3.15h-1.7v-7.44Z"/>
    <path class="cls-14" d="M253.85,169.93h3.1c2.09,0,3.43,1.49,3.43,3.77s-1.25,3.67-3.53,3.67h-3v-7.44ZM256.72,175.92c1.29,0,1.92-.81,1.92-2.23s-.64-2.33-1.89-2.33h-1.19v4.56h1.16Z"/>
  </g>
  <g>
    <path class="cls-14" d="M150.04,243.09v-1.38h5.4v1.38h-5.4ZM152,245.02v-5.24h1.47v5.24h-1.47Z"/>
    <path class="cls-14" d="M159.27,246.51c-.55,0-1.1-.07-1.64-.22s-1-.36-1.39-.64l.73-1.39c.29.22.64.4,1.04.53.4.13.8.2,1.22.2.46,0,.83-.09,1.09-.28s.4-.44.4-.77c0-.21-.05-.39-.16-.54-.11-.15-.3-.27-.57-.36-.27-.09-.64-.13-1.13-.13h-2.02l.4-4.47h4.85v1.47h-4.2l.95-.84-.29,3.19-.94-.83h1.68c.79,0,1.42.11,1.89.32.48.21.83.5,1.05.88.22.37.33.8.33,1.26s-.12.89-.35,1.29c-.23.4-.6.72-1.08.96-.49.24-1.11.36-1.87.36Z"/>
    <path class="cls-14" d="M166.72,246.51c-.65,0-1.23-.16-1.74-.48-.51-.32-.92-.79-1.21-1.39s-.45-1.35-.45-2.23.15-1.62.45-2.23c.3-.61.7-1.07,1.21-1.39.51-.32,1.09-.48,1.74-.48s1.24.16,1.75.48c.51.32.91.79,1.21,1.39.3.61.45,1.35.45,2.23s-.15,1.62-.45,2.23-.7,1.07-1.21,1.39c-.51.32-1.09.48-1.75.48ZM166.72,244.97c.31,0,.58-.09.81-.27s.41-.46.54-.83c.13-.38.2-.87.2-1.46s-.07-1.08-.2-1.46c-.13-.38-.31-.66-.54-.83-.23-.18-.5-.27-.81-.27s-.56.09-.79.27c-.23.18-.42.46-.56.83s-.2.87-.2,1.46.07,1.08.2,1.46.32.66.56.83.5.27.79.27Z"/>
    <path class="cls-14" d="M178.52,246.51c-.61,0-1.18-.1-1.71-.3s-.98-.49-1.37-.86c-.39-.37-.69-.81-.9-1.3-.21-.5-.32-1.05-.32-1.64s.11-1.15.32-1.64c.22-.5.52-.93.91-1.3.39-.37.85-.66,1.37-.86s1.09-.3,1.71-.3c.69,0,1.31.12,1.87.36.56.24,1.03.59,1.41,1.05l-1.19,1.09c-.26-.31-.57-.54-.9-.7-.34-.16-.7-.24-1.09-.24-.37,0-.71.06-1.02.19-.31.12-.58.3-.81.53-.23.23-.4.5-.53.8-.12.31-.19.65-.19,1.03s.06.72.19,1.03c.12.31.3.58.53.8.23.23.5.4.81.53.31.12.65.19,1.02.19.39,0,.76-.08,1.09-.24.34-.16.64-.4.9-.71l1.19,1.09c-.38.46-.85.81-1.41,1.05-.56.24-1.19.36-1.88.36Z"/>
    <path class="cls-14" d="M185.37,246.37l-3.44-7.94h2l2.99,7.03h-1.17l3.04-7.03h1.83l-3.44,7.94h-1.81Z"/>
    <path class="cls-14" d="M193.34,247.5l3.74-10.68h1.56l-3.74,10.68h-1.56Z"/>
    <path class="cls-14" d="M202.07,243.09v-1.38h5.4v1.38h-5.4ZM204.04,245.02v-5.24h1.47v5.24h-1.47Z"/>
    <path class="cls-14" d="M213.04,246.37v-7.26l.79.79h-2.38v-1.47h3.42v7.94h-1.84Z"/>
    <path class="cls-14" d="M219.66,246.51c-.65,0-1.23-.16-1.74-.48-.51-.32-.92-.79-1.21-1.39-.3-.61-.45-1.35-.45-2.23s.15-1.62.45-2.23c.3-.61.7-1.07,1.21-1.39.51-.32,1.09-.48,1.74-.48s1.24.16,1.75.48c.51.32.92.79,1.21,1.39.3.61.45,1.35.45,2.23s-.15,1.62-.45,2.23c-.3.61-.7,1.07-1.21,1.39-.51.32-1.09.48-1.75.48ZM219.66,244.97c.31,0,.58-.09.81-.27s.41-.46.54-.83c.13-.38.2-.87.2-1.46s-.07-1.08-.2-1.46c-.13-.38-.31-.66-.54-.83-.23-.18-.5-.27-.81-.27s-.56.09-.79.27c-.23.18-.42.46-.56.83-.14.38-.2.87-.2,1.46s.07,1.08.2,1.46c.14.38.32.66.56.83.23.18.5.27.79.27Z"/>
    <path class="cls-14" d="M226.75,238.3c.73,0,1.37.15,1.9.45.53.3.94.74,1.22,1.33.28.59.42,1.3.42,2.15,0,.92-.17,1.7-.52,2.34-.34.63-.82,1.12-1.42,1.45-.61.33-1.31.5-2.11.5-.42,0-.82-.05-1.2-.14-.39-.09-.72-.23-1-.4l.67-1.35c.22.15.46.25.71.31s.52.08.79.08c.68,0,1.22-.21,1.63-.63.4-.42.61-1.03.61-1.84,0-.14,0-.29-.01-.45,0-.17-.03-.33-.06-.5l.5.48c-.13.29-.31.54-.54.74s-.51.35-.82.45c-.31.1-.66.15-1.04.15-.51,0-.97-.1-1.38-.31s-.74-.49-.99-.86c-.25-.37-.37-.8-.37-1.3,0-.54.13-1,.4-1.4s.63-.7,1.09-.92c.46-.22.96-.32,1.51-.32ZM226.86,239.67c-.26,0-.5.05-.7.14-.2.09-.36.23-.46.41-.11.18-.17.39-.17.63,0,.36.12.65.37.87.25.22.57.32.98.32.27,0,.51-.05.71-.16.2-.11.36-.25.48-.42.11-.18.17-.38.17-.62,0-.22-.05-.42-.16-.6-.11-.18-.26-.32-.47-.42s-.46-.15-.75-.15Z"/>
    <path class="cls-14" d="M234.89,246.37v-7.94h1.52l4.68,5.71h-.74v-5.71h1.81v7.94h-1.52l-4.68-5.71h.74v5.71h-1.81Z"/>
    <path class="cls-14" d="M244.05,246.37v-7.94h1.52l3.38,5.6h-.8l3.31-5.6h1.53v7.94h-1.71l-.02-5.29h.34l-2.68,4.44h-.82l-2.71-4.44h.37v5.29h-1.71Z"/>
  </g>
  <g>
    <path class="cls-14" d="M154.06,193.66c-.34,0-.66-.06-.95-.17-.29-.11-.55-.28-.76-.49-.21-.21-.38-.45-.5-.73s-.18-.59-.18-.92.06-.64.18-.92.29-.52.5-.73c.21-.21.47-.37.76-.49s.61-.17.96-.17.66.06.95.17.54.28.76.48c.21.21.38.45.5.73s.18.59.18.92-.06.64-.18.92c-.12.28-.29.53-.5.73-.21.21-.47.37-.76.48s-.61.17-.95.17ZM154.06,193.23c.27,0,.52-.05.76-.14.23-.09.43-.23.6-.4.17-.17.3-.37.4-.6.1-.23.14-.48.14-.75s-.05-.52-.14-.75c-.09-.23-.23-.43-.4-.6s-.37-.3-.6-.4c-.23-.09-.48-.14-.76-.14s-.53.05-.76.14c-.23.09-.44.23-.61.4-.17.17-.31.37-.4.6-.09.23-.14.48-.14.75s.05.52.14.75c.1.23.23.43.4.6.17.17.38.3.61.4.23.09.49.14.76.14Z"/>
    <path class="cls-14" d="M157.52,193.62v-4.55h1.7c.38,0,.72.06.99.19.28.12.49.3.64.53.15.23.22.51.22.84s-.08.6-.22.83c-.15.23-.36.41-.64.53-.28.12-.61.19-.99.19h-1.44l.21-.22v1.66h-.48ZM158,192l-.21-.23h1.42c.45,0,.8-.1,1.04-.3.24-.2.35-.48.35-.84s-.12-.65-.35-.84c-.24-.2-.58-.3-1.04-.3h-1.42l.21-.23v2.73ZM160.63,193.62l-1.17-1.65h.52l1.18,1.65h-.53Z"/>
    <path class="cls-14" d="M162.22,193.62v-4.55h.48v4.55h-.48Z"/>
    <path class="cls-14" d="M166.17,193.66c-.35,0-.67-.06-.96-.17-.29-.11-.55-.28-.76-.48-.21-.21-.38-.45-.5-.73-.12-.28-.18-.59-.18-.92s.06-.64.18-.92.29-.53.5-.73.47-.37.76-.48c.29-.11.61-.17.96-.17s.66.05.95.16c.29.11.53.27.74.49l-.3.31c-.19-.19-.4-.33-.63-.41-.23-.08-.48-.12-.74-.12-.28,0-.54.05-.78.14-.24.09-.44.23-.62.4-.18.17-.31.37-.41.6-.1.23-.15.48-.15.75s.05.52.15.75c.1.23.23.43.41.6.17.17.38.3.62.4.24.09.49.14.77.14.26,0,.5-.04.74-.12.23-.08.45-.21.64-.4l.27.36c-.22.19-.47.33-.76.43-.29.1-.59.15-.91.15ZM167.38,193.02v-1.68h.46v1.73l-.46-.06Z"/>
    <path class="cls-14" d="M169.21,193.65c-.09,0-.18-.03-.24-.1-.07-.07-.1-.15-.1-.25s.03-.19.1-.25c.07-.06.15-.1.24-.1s.18.03.24.1c.07.06.1.15.1.25s-.03.18-.1.25c-.07.07-.15.1-.24.1Z"/>
  </g>
  <g>
    <path class="cls-14" d="M194.44,193.66c-.34,0-.66-.06-.95-.17s-.54-.28-.76-.49c-.21-.21-.38-.45-.5-.73s-.18-.59-.18-.92.06-.64.18-.92.29-.52.5-.73c.21-.21.47-.37.76-.49s.61-.17.95-.17.66.06.95.17.54.28.76.48c.21.21.38.45.5.73s.18.59.18.92-.06.64-.18.92c-.12.28-.29.53-.5.73-.21.21-.47.37-.76.48s-.61.17-.95.17ZM194.44,193.23c.27,0,.53-.05.76-.14s.43-.23.6-.4c.17-.17.3-.37.4-.6.09-.23.14-.48.14-.75s-.05-.52-.14-.75c-.1-.23-.23-.43-.4-.6-.17-.17-.37-.3-.6-.4-.23-.09-.48-.14-.76-.14s-.53.05-.76.14c-.23.09-.44.23-.61.4s-.31.37-.4.6c-.1.23-.14.48-.14.75s.05.52.14.75c.09.23.23.43.4.6.17.17.38.3.61.4.23.09.49.14.76.14Z"/>
    <path class="cls-14" d="M197.91,193.62v-4.55h1.7c.39,0,.72.06.99.19.28.12.49.3.64.53.15.23.22.51.22.84s-.07.6-.22.83c-.15.23-.36.41-.64.54s-.61.19-.99.19h-1.43l.21-.23v1.66h-.48ZM198.39,192l-.21-.23h1.42c.46,0,.8-.1,1.04-.3.24-.2.35-.48.35-.83s-.12-.65-.35-.84c-.24-.2-.58-.3-1.04-.3h-1.42l.21-.23v2.73Z"/>
    <path class="cls-14" d="M203.24,193.62v-4.13h-1.6v-.42h3.68v.42h-1.6v4.13h-.48Z"/>
    <path class="cls-14" d="M205.83,193.65c-.1,0-.18-.03-.24-.1-.07-.07-.1-.15-.1-.25s.03-.19.1-.25c.07-.06.15-.1.24-.1s.18.03.24.1.1.15.1.25-.03.18-.1.25-.15.1-.24.1Z"/>
  </g>
  <rect class="cls-14" x="149.52" y="199.66" width="36.47" height="14.2"/>
  <rect class="cls-14" x="186.75" y="199.66" width="37.75" height="14.2"/>
  <rect class="cls-14" x="149.52" y="214.68" width="36.47" height="14.2"/>
  <rect class="cls-14" x="186.75" y="214.68" width="37.75" height="14.2"/>
  <g>
    <path class="cls-8" d="M156.41,208.01c.48-.53,1.16-.94,1.69-1.32.33-.24.53-.47.53-.84,0-.44-.26-.73-.71-.73-.27,0-.46.07-.6.24-.17.18-.24.44-.24.76h-1.13c0-.52.11-.9.35-1.23.3-.44.86-.72,1.66-.72,1.21,0,1.87.73,1.87,1.65,0,.6-.27.99-.65,1.31-.54.49-1.32.81-1.73,1.31v.02h2.37v.99h-3.95c0-.64.2-1.05.54-1.44Z"/>
    <path class="cls-8" d="M160.23,207.98h1.17c.08.39.41.64.9.64.54,0,.92-.37.92-.91s-.39-.89-.89-.89c-.37,0-.65.15-.81.34h-1.11l.54-2.88h3.14v.95h-2.29l-.23,1.14h.01c.24-.26.56-.42,1.07-.42.94,0,1.76.68,1.76,1.77s-.86,1.85-2.06,1.85-2.03-.6-2.11-1.59Z"/>
    <path class="cls-8" d="M164.91,206.87c0-1.65.92-2.7,2.25-2.7s2.25,1.05,2.25,2.7-.89,2.7-2.26,2.7-2.24-1.05-2.24-2.7ZM168.19,206.87c0-1.06-.3-1.78-1.03-1.78s-1.03.72-1.03,1.78.3,1.77,1.03,1.77,1.03-.7,1.03-1.77Z"/>
    <path class="cls-8" d="M171.65,206.77c0-1.61,1.04-2.82,2.65-2.82.6,0,1.11.15,1.48.42.49.36.77.89.84,1.5h-1.24c-.07-.51-.48-.89-1.09-.89-.92,0-1.38.76-1.38,1.79s.54,1.78,1.39,1.78c.66,0,1.07-.43,1.13-.99h1.24c-.04.54-.28,1.04-.65,1.4-.41.4-.96.61-1.71.61-1.58,0-2.65-1.19-2.65-2.8Z"/>
    <path class="cls-8" d="M176.92,204.04h1.29l.8,2.6c.18.6.37,1.59.37,1.59h.01s.19-1,.36-1.59l.79-2.6h1.25l-1.79,5.4h-1.3l-1.79-5.4Z"/>
  </g>
  <g>
    <path class="cls-8" d="M156.04,223.18h1.13c.07.24.31.5.76.5.35,0,.61-.13.79-.42.15-.24.24-.6.27-1.08h-.01c-.3.38-.69.61-1.23.61-1.03,0-1.87-.73-1.87-1.82s.86-1.83,2.05-1.83c.6,0,1.1.18,1.45.5.49.44.73,1.16.73,2.16,0,.89-.17,1.65-.6,2.12-.36.4-.86.62-1.54.62-1.1,0-1.82-.6-1.92-1.36ZM158.92,220.96c0-.55-.41-.95-.96-.95s-.96.41-.96.94.37.95.95.95.97-.39.97-.94Z"/>
    <path class="cls-8" d="M160.55,222.95h1.17c.08.39.41.64.9.64.54,0,.92-.37.92-.91s-.39-.89-.89-.89c-.37,0-.65.15-.81.34h-1.11l.54-2.88h3.15v.95h-2.29l-.23,1.14h.01c.24-.26.56-.42,1.07-.42.94,0,1.76.68,1.76,1.77s-.86,1.85-2.06,1.85-2.03-.6-2.11-1.59Z"/>
    <path class="cls-8" d="M165.23,221.84c0-1.65.92-2.7,2.25-2.7s2.25,1.05,2.25,2.7-.89,2.7-2.26,2.7-2.24-1.05-2.24-2.7ZM168.51,221.84c0-1.06-.3-1.78-1.03-1.78s-1.03.72-1.03,1.78.31,1.77,1.03,1.77,1.03-.7,1.03-1.77Z"/>
    <path class="cls-8" d="M172.2,219.01h1.26l1.42,2.35c.32.54.74,1.42.74,1.42h.01s-.07-.97-.07-1.58v-2.19h1.18v5.4h-1.27l-1.41-2.32c-.33-.54-.75-1.45-.75-1.45h-.01s.07.97.07,1.59v2.17h-1.18v-5.4Z"/>
    <path class="cls-8" d="M177.66,219.01h1.66l.67,2.25c.2.68.41,1.92.41,1.92h.02s.2-1.25.4-1.92l.66-2.25h1.69v5.4h-1.14v-2.42c0-.68.09-1.95.09-1.95h-.01s-.23,1.15-.42,1.79l-.77,2.57h-1.02l-.78-2.57c-.19-.64-.42-1.79-.42-1.79h-.01s.09,1.26.09,1.95v2.42h-1.11v-5.4Z"/>
  </g>
  <g>
    <path class="cls-8" d="M190.99,221.04h-1.2v-.79c.76-.02,1.32-.34,1.45-1.05h.94v5.22h-1.18v-3.38Z"/>
    <path class="cls-8" d="M192.99,221.84c0-1.65.92-2.7,2.25-2.7s2.25,1.05,2.25,2.7-.89,2.7-2.26,2.7-2.25-1.05-2.25-2.7ZM196.27,221.84c0-1.06-.3-1.78-1.03-1.78s-1.03.72-1.03,1.78.3,1.77,1.03,1.77,1.03-.7,1.03-1.77Z"/>
    <path class="cls-8" d="M200.56,223.25h-2.43v-1.05l2.43-3.01h1.13v3.19h.77v.87h-.77v1.17h-1.14v-1.17ZM199.67,222.37h.89v-1.25c0-.31.04-.79.04-.79h-.01s-.29.45-.51.72l-.55.69c-.21.26-.59.66-.59.66h0s.45-.03.74-.03Z"/>
    <path class="cls-8" d="M202.66,222.95h1.17c.08.39.41.64.9.64.54,0,.92-.37.92-.91s-.39-.89-.89-.89c-.37,0-.65.15-.81.34h-1.11l.54-2.88h3.15v.95h-2.3l-.23,1.14h.01c.24-.26.56-.42,1.07-.42.94,0,1.76.68,1.76,1.77s-.86,1.85-2.06,1.85-2.03-.6-2.11-1.59Z"/>
    <path class="cls-8" d="M209.28,219.01h1.26l1.42,2.35c.32.54.74,1.42.74,1.42h.01s-.07-.97-.07-1.58v-2.19h1.18v5.4h-1.27l-1.41-2.32c-.33-.54-.75-1.45-.75-1.45h-.01s.07.97.07,1.59v2.17h-1.18v-5.4Z"/>
    <path class="cls-8" d="M214.75,219.01h1.66l.68,2.25c.2.68.41,1.92.41,1.92h.02s.2-1.25.4-1.92l.66-2.25h1.68v5.4h-1.14v-2.42c0-.68.09-1.95.09-1.95h-.01s-.23,1.15-.42,1.79l-.77,2.57h-1.02l-.78-2.57c-.19-.64-.42-1.79-.42-1.79h-.01s.09,1.26.09,1.95v2.42h-1.11v-5.4Z"/>
  </g>
  <g>
    <path class="cls-8" d="M193.55,209.12c-.41-.33-.62-.83-.62-1.37h1.12c.04.5.32.91,1.01.91.55,0,.87-.29.87-.77s-.34-.73-.95-.73h-.31v-.83h.28c.53,0,.86-.23.86-.65,0-.39-.29-.64-.74-.64-.59,0-.85.39-.88.79h-1.1c.02-.94.73-1.67,2-1.67,1.1,0,1.88.54,1.88,1.45,0,.54-.34.86-.88,1.04h0c.65.2,1.04.62,1.04,1.31,0,1.1-.94,1.6-2.03,1.6-.68,0-1.17-.16-1.55-.45Z"/>
    <path class="cls-8" d="M197.62,206.87c0-1.65.92-2.7,2.25-2.7s2.25,1.05,2.25,2.7-.89,2.7-2.26,2.7-2.24-1.05-2.24-2.7ZM200.9,206.87c0-1.06-.3-1.78-1.03-1.78s-1.03.72-1.03,1.78.3,1.77,1.03,1.77,1.03-.7,1.03-1.77Z"/>
    <path class="cls-8" d="M202.64,206.87c0-1.65.92-2.7,2.25-2.7s2.25,1.05,2.25,2.7-.89,2.7-2.26,2.7-2.24-1.05-2.24-2.7ZM205.92,206.87c0-1.06-.3-1.78-1.03-1.78s-1.03.72-1.03,1.78.3,1.77,1.03,1.77,1.03-.7,1.03-1.77Z"/>
    <path class="cls-8" d="M209.38,206.77c0-1.61,1.04-2.82,2.65-2.82.6,0,1.11.15,1.48.42.49.36.77.89.83,1.5h-1.23c-.07-.51-.48-.89-1.09-.89-.92,0-1.38.76-1.38,1.79s.54,1.78,1.39,1.78c.66,0,1.07-.43,1.13-.99h1.24c-.04.54-.28,1.04-.65,1.4-.41.4-.96.61-1.71.61-1.58,0-2.65-1.19-2.65-2.8Z"/>
    <path class="cls-8" d="M214.65,204.04h1.29l.8,2.6c.18.6.37,1.59.37,1.59h.01s.19-1,.36-1.59l.79-2.6h1.25l-1.79,5.4h-1.3l-1.79-5.4Z"/>
  </g>
  <g>
    <path class="cls-14" d="M149.36,378.68c0-2.22,1.43-3.88,3.65-3.88.82,0,1.53.2,2.04.58.67.49,1.06,1.22,1.15,2.06h-1.7c-.1-.7-.66-1.22-1.5-1.22-1.27,0-1.9,1.05-1.9,2.46s.74,2.45,1.91,2.45c.91,0,1.47-.59,1.55-1.36h1.71c-.05.74-.39,1.43-.9,1.93-.56.55-1.32.84-2.36.84-2.17,0-3.65-1.64-3.65-3.86Z"/>
    <path class="cls-14" d="M157.07,374.94h1.58v7.44h-1.58v-7.44Z"/>
    <path class="cls-14" d="M162.92,381.72h-.02c-.35.49-.79.79-1.61.79-1.05,0-1.82-.56-1.82-1.61,0-1.18.93-1.48,2.09-1.62.95-.13,1.34-.28,1.34-.68s-.25-.64-.79-.64c-.6,0-.89.28-.93.7h-1.45c.04-.91.78-1.76,2.36-1.76.68,0,1.16.1,1.53.32.55.32.81.87.81,1.59v2.73c0,.42.06.65.2.74v.09h-1.53c-.08-.12-.15-.35-.18-.65ZM162.94,380.46v-.69c-.23.14-.57.22-.92.3-.69.15-1.02.32-1.02.78s.35.63.78.63c.7,0,1.16-.44,1.16-1.02Z"/>
    <path class="cls-14" d="M168.72,381.72h-.02c-.35.49-.79.79-1.61.79-1.05,0-1.82-.56-1.82-1.61,0-1.18.93-1.48,2.09-1.62.95-.13,1.34-.28,1.34-.68s-.25-.64-.79-.64c-.6,0-.89.28-.93.7h-1.45c.04-.91.78-1.76,2.36-1.76.68,0,1.16.1,1.53.32.55.32.81.87.81,1.59v2.73c0,.42.06.65.2.74v.09h-1.53c-.08-.12-.15-.35-.18-.65ZM168.74,380.46v-.69c-.23.14-.57.22-.92.3-.69.15-1.02.32-1.02.78s.35.63.78.63c.7,0,1.16-.44,1.16-1.02Z"/>
    <path class="cls-14" d="M170.96,380.73h1.48c.09.5.47.78,1.08.78.56,0,.88-.23.88-.61,0-.48-.63-.54-1.37-.68-.95-.18-1.91-.42-1.91-1.66,0-1.09.99-1.66,2.24-1.66,1.48,0,2.22.64,2.36,1.57h-1.46c-.1-.38-.4-.57-.9-.57s-.79.2-.79.54c0,.4.58.46,1.31.59.95.17,2.03.42,2.03,1.76,0,1.15-1.02,1.75-2.4,1.75-1.54,0-2.47-.74-2.55-1.81Z"/>
    <path class="cls-14" d="M178.83,380.12v-.57h1.57v.53c0,.74.32,1.02.88,1.02s.83-.34.83-.94v-5.23h1.71v5.27c0,.62-.15,1.12-.47,1.5-.4.5-1.07.81-1.97.81-1.7,0-2.55-.92-2.55-2.39Z"/>
    <path class="cls-14" d="M188.11,381.72h-.02c-.35.49-.79.79-1.61.79-1.05,0-1.82-.56-1.82-1.61,0-1.18.93-1.48,2.09-1.62.95-.13,1.34-.28,1.34-.68s-.25-.64-.79-.64c-.6,0-.89.28-.93.7h-1.45c.04-.91.78-1.76,2.36-1.76.68,0,1.16.1,1.53.32.55.32.81.87.81,1.59v2.73c0,.42.06.65.2.74v.09h-1.53c-.08-.12-.15-.35-.18-.65ZM188.13,380.46v-.69c-.23.14-.57.22-.92.3-.69.15-1.02.32-1.02.78s.35.63.78.63c.7,0,1.16-.44,1.16-1.02Z"/>
    <path class="cls-14" d="M190.59,382.56h1.53c.1.32.4.54,1.01.54.74,0,1.11-.38,1.11-1.03v-.11c0-.27,0-.52.03-.7h-.04c-.31.52-.78.78-1.44.78-1.23,0-2.32-.91-2.32-2.52s.93-2.62,2.24-2.62c.72,0,1.23.24,1.53.83h.02v-.68h1.5v4.85c0,.79-.26,1.36-.69,1.74-.46.4-1.14.58-1.92.58-1.46,0-2.4-.61-2.56-1.66ZM194.29,379.47c0-.79-.39-1.38-1.16-1.38-.69,0-1.12.54-1.12,1.39s.43,1.38,1.13,1.38c.8,0,1.15-.6,1.15-1.39Z"/>
    <path class="cls-14" d="M200.27,382.37v-.76h-.03c-.39.62-.87.91-1.6.91-1.21,0-1.87-.78-1.87-1.95v-3.52h1.57v3.22c0,.59.29.93.85.93.63,0,1.02-.48,1.02-1.14v-3.01h1.55v5.32h-1.49Z"/>
    <path class="cls-14" d="M206.03,381.72h-.02c-.35.49-.79.79-1.61.79-1.05,0-1.82-.56-1.82-1.61,0-1.18.93-1.48,2.09-1.62.95-.13,1.34-.28,1.34-.68s-.25-.64-.79-.64c-.6,0-.89.28-.93.7h-1.45c.04-.91.78-1.76,2.36-1.76.68,0,1.16.1,1.53.32.55.32.81.87.81,1.59v2.73c0,.42.06.65.2.74v.09h-1.53c-.08-.12-.15-.35-.18-.65ZM206.05,380.46v-.69c-.23.14-.57.22-.92.3-.69.15-1.02.32-1.02.78s.35.63.78.63c.7,0,1.16-.44,1.16-1.02Z"/>
    <path class="cls-14" d="M210.11,378h.03c.34-.74.82-1.04,1.48-1.04.15,0,.26.01.33.04v1.37h-.04c-.11-.02-.22-.03-.33-.03-.85,0-1.41.52-1.41,1.56v2.47h-1.57v-5.32h1.51v.95Z"/>
    <path class="cls-14" d="M215.14,380.67h1.56c.09.33.42.69,1.05.69.48,0,.84-.18,1.09-.58.21-.33.33-.82.37-1.49h-.02c-.41.52-.95.84-1.7.84-1.42,0-2.57-1-2.57-2.51s1.19-2.52,2.82-2.52c.82,0,1.51.25,2,.69.68.61,1,1.6,1,2.98,0,1.22-.23,2.27-.83,2.92-.49.55-1.18.85-2.12.85-1.52,0-2.5-.83-2.65-1.87ZM219.1,377.62c0-.76-.56-1.31-1.32-1.31s-1.32.56-1.32,1.3.51,1.31,1.31,1.31,1.33-.54,1.33-1.3Z"/>
    <path class="cls-14" d="M221.35,380.35h1.61c.11.53.56.88,1.24.88.74,0,1.26-.51,1.26-1.25s-.54-1.23-1.23-1.23c-.51,0-.9.21-1.11.47h-1.53l.74-3.97h4.33v1.31h-3.16l-.32,1.57h.02c.33-.36.77-.58,1.47-.58,1.3,0,2.43.94,2.43,2.44s-1.18,2.55-2.84,2.55-2.8-.83-2.91-2.19Z"/>
    <path class="cls-14" d="M227.79,378.82c0-2.27,1.26-3.72,3.1-3.72s3.1,1.44,3.1,3.72-1.23,3.72-3.11,3.72-3.09-1.45-3.09-3.72ZM232.31,378.82c0-1.46-.41-2.45-1.42-2.45s-1.42.99-1.42,2.45.42,2.43,1.42,2.43,1.42-.97,1.42-2.43Z"/>
  </g>
  <g>
    <path class="cls-14" d="M150.04,448.1v-1.38h5.4v1.38h-5.4ZM152,450.03v-5.24h1.47v5.24h-1.47Z"/>
    <path class="cls-14" d="M156.53,449.71v-1.24l3.74-5.03h1.93l-3.65,5.03-.91-.26h6.25v1.5h-7.36ZM160.8,451.38v-1.67l.06-1.5v-1.49h1.74v4.65h-1.79Z"/>
    <path class="cls-14" d="M165.22,451.38l3.2-7.23.48.79h-4.26l.79-.86v2.17h-1.62v-2.8h6.36v1.19l-2.95,6.75h-2Z"/>
    <path class="cls-14" d="M178.49,451.51c-.61,0-1.18-.1-1.71-.3s-.98-.49-1.37-.86c-.39-.37-.69-.8-.9-1.3-.21-.5-.32-1.05-.32-1.64s.11-1.15.32-1.64c.22-.5.52-.93.91-1.3.39-.37.85-.66,1.37-.86s1.09-.3,1.71-.3c.69,0,1.31.12,1.87.36s1.03.59,1.41,1.05l-1.19,1.09c-.26-.31-.57-.54-.9-.7-.34-.16-.7-.24-1.09-.24-.37,0-.71.06-1.02.19-.31.12-.58.3-.81.53-.23.23-.4.5-.53.8-.12.31-.19.65-.19,1.03s.06.72.19,1.03c.12.31.3.58.53.8.23.23.5.4.81.53.31.12.65.19,1.02.19.39,0,.76-.08,1.09-.24.34-.16.64-.4.9-.71l1.19,1.09c-.38.46-.85.81-1.41,1.05s-1.19.36-1.88.36Z"/>
    <path class="cls-14" d="M185.34,451.38l-3.44-7.94h2l2.99,7.03h-1.17l3.04-7.03h1.83l-3.44,7.94h-1.81Z"/>
  </g>
  <g>
    <path class="cls-14" d="M154.03,398.67c-.34,0-.66-.06-.95-.17-.29-.12-.55-.28-.76-.49-.21-.21-.38-.45-.5-.73s-.18-.59-.18-.92.06-.64.18-.92.29-.52.5-.73c.21-.21.47-.37.76-.49s.61-.17.96-.17.66.06.95.17.54.28.76.48c.21.21.38.45.5.73s.18.59.18.92-.06.64-.18.92c-.12.28-.29.53-.5.73-.21.21-.47.37-.76.48-.29.11-.61.17-.95.17ZM154.03,398.24c.27,0,.52-.05.76-.14.23-.09.43-.22.6-.4.17-.17.3-.37.4-.6.1-.23.14-.48.14-.75s-.05-.52-.14-.75c-.09-.23-.23-.43-.4-.6-.17-.17-.37-.3-.6-.4-.23-.09-.48-.14-.76-.14s-.53.05-.76.14c-.23.09-.44.23-.61.4-.17.17-.31.37-.4.6-.09.23-.14.48-.14.75s.05.52.14.75c.1.23.23.43.4.6.17.17.38.3.61.4.23.09.49.14.76.14Z"/>
    <path class="cls-14" d="M157.49,398.63v-4.55h1.7c.38,0,.72.06.99.19.28.12.49.3.64.53.15.23.22.51.22.84s-.08.6-.22.83c-.15.23-.36.41-.64.53-.28.12-.61.19-.99.19h-1.44l.21-.22v1.66h-.48ZM157.97,397.01l-.21-.23h1.42c.45,0,.8-.1,1.04-.3.24-.2.35-.48.35-.84s-.12-.65-.35-.84c-.24-.2-.58-.3-1.04-.3h-1.42l.21-.23v2.73ZM160.59,398.63l-1.17-1.65h.52l1.18,1.65h-.53Z"/>
    <path class="cls-14" d="M162.18,398.63v-4.55h.48v4.55h-.48Z"/>
    <path class="cls-14" d="M166.14,398.67c-.35,0-.67-.06-.96-.17-.29-.12-.55-.28-.76-.48-.21-.21-.38-.45-.5-.73-.12-.28-.18-.59-.18-.92s.06-.64.18-.92.29-.53.5-.73c.22-.21.47-.37.76-.48.29-.11.61-.17.96-.17s.66.05.95.16c.29.11.53.27.74.49l-.3.31c-.19-.19-.4-.33-.63-.41s-.48-.12-.74-.12c-.28,0-.54.05-.78.14-.24.09-.44.23-.62.4-.18.17-.31.37-.41.6-.1.23-.15.48-.15.75s.05.52.15.75c.1.23.23.43.41.6.17.17.38.3.62.4.24.09.49.14.77.14.26,0,.5-.04.74-.12.23-.08.45-.21.64-.4l.27.36c-.22.19-.47.33-.76.43s-.59.15-.91.15ZM167.35,398.03v-1.68h.46v1.73l-.46-.06Z"/>
    <path class="cls-14" d="M169.18,398.66c-.09,0-.18-.04-.24-.1-.07-.07-.1-.15-.1-.25,0-.1.03-.19.1-.25.07-.06.15-.1.24-.1s.18.03.24.1c.07.06.1.15.1.25s-.03.18-.1.25c-.07.07-.15.1-.24.1Z"/>
  </g>
  <g>
    <path class="cls-14" d="M194.41,398.67c-.34,0-.66-.06-.95-.17-.29-.12-.55-.28-.76-.49-.21-.21-.38-.45-.5-.73s-.18-.59-.18-.92.06-.64.18-.92.29-.52.5-.73c.21-.21.47-.37.76-.49s.61-.17.96-.17.66.06.95.17.54.28.76.48c.21.21.38.45.5.73s.18.59.18.92-.06.64-.18.92c-.12.28-.29.53-.5.73-.21.21-.47.37-.76.48-.29.11-.61.17-.95.17ZM194.41,398.24c.27,0,.52-.05.76-.14.23-.09.43-.22.6-.4.17-.17.3-.37.4-.6.1-.23.14-.48.14-.75s-.05-.52-.14-.75c-.09-.23-.23-.43-.4-.6-.17-.17-.37-.3-.6-.4-.23-.09-.48-.14-.76-.14s-.53.05-.76.14c-.23.09-.44.23-.61.4-.17.17-.31.37-.4.6-.09.23-.14.48-.14.75s.05.52.14.75c.1.23.23.43.4.6.17.17.38.3.61.4.23.09.49.14.76.14Z"/>
    <path class="cls-14" d="M197.87,398.63v-4.55h1.7c.38,0,.72.06.99.19.28.12.49.3.64.53.15.23.22.51.22.84s-.08.6-.22.83c-.15.23-.36.41-.64.54-.28.12-.61.19-.99.19h-1.44l.21-.23v1.66h-.48ZM198.35,397.01l-.21-.23h1.42c.45,0,.8-.1,1.04-.29.24-.2.35-.48.35-.83s-.12-.65-.35-.84c-.24-.2-.58-.3-1.04-.3h-1.42l.21-.23v2.73Z"/>
    <path class="cls-14" d="M203.2,398.63v-4.13h-1.6v-.42h3.68v.42h-1.6v4.13h-.48Z"/>
    <path class="cls-14" d="M205.79,398.66c-.09,0-.18-.04-.24-.1-.07-.07-.1-.15-.1-.25,0-.1.03-.19.1-.25.07-.06.15-.1.24-.1s.18.03.24.1c.07.06.1.15.1.25s-.03.18-.1.25c-.07.07-.15.1-.24.1Z"/>
  </g>
  <rect class="cls-14" x="149.49" y="404.67" width="36.47" height="14.2"/>
  <rect class="cls-14" x="186.72" y="404.67" width="37.75" height="14.2"/>
  <g>
    <path class="cls-8" d="M156.2,412.99h1.17c.08.39.41.64.9.64.54,0,.92-.37.92-.91s-.39-.89-.89-.89c-.37,0-.65.15-.81.34h-1.11l.54-2.88h3.14v.95h-2.29l-.23,1.14h.01c.24-.26.56-.42,1.07-.42.94,0,1.76.68,1.76,1.77s-.86,1.85-2.06,1.85-2.03-.6-2.11-1.59Z"/>
    <path class="cls-8" d="M160.83,412.98c0-.61.36-1.1,1.02-1.3v-.02c-.55-.2-.81-.57-.81-1.05,0-.86.76-1.43,1.92-1.43s1.9.54,1.9,1.41c0,.46-.26.86-.8,1.05v.02c.68.19,1.03.69,1.03,1.3,0,1.03-.89,1.63-2.13,1.63s-2.14-.6-2.14-1.6ZM163.9,412.91c0-.5-.35-.81-.93-.81s-.94.31-.94.81.36.78.94.78.93-.31.93-.78ZM163.75,410.66c0-.4-.28-.67-.79-.67s-.79.27-.79.67.29.65.79.65.79-.26.79-.65Z"/>
    <path class="cls-8" d="M166.18,413.86c-.4-.47-.59-1.15-.59-1.97,0-.84.17-1.55.6-2.06.37-.44.88-.67,1.61-.67,1.08,0,1.71.58,1.87,1.34h-1.13c-.07-.24-.28-.49-.71-.49-.69,0-1.06.52-1.12,1.54h.01c.29-.41.69-.65,1.26-.65.99,0,1.83.74,1.84,1.82,0,1.09-.86,1.84-2.01,1.84-.73,0-1.27-.27-1.63-.71ZM168.7,412.75c0-.55-.4-.95-.93-.95-.58,0-.97.39-.97.94s.42.94.97.94c.52,0,.93-.4.93-.94Z"/>
    <path class="cls-8" d="M172.03,411.77c0-1.61,1.04-2.82,2.65-2.82.6,0,1.11.14,1.48.42.49.36.77.89.83,1.5h-1.23c-.07-.51-.48-.89-1.09-.89-.92,0-1.38.76-1.38,1.79s.54,1.78,1.39,1.78c.66,0,1.07-.43,1.13-.99h1.24c-.04.54-.28,1.04-.65,1.4-.41.4-.96.61-1.71.61-1.58,0-2.65-1.19-2.65-2.8Z"/>
    <path class="cls-8" d="M177.3,409.05h1.29l.8,2.6c.18.6.37,1.59.37,1.59h.01s.19-1,.36-1.59l.79-2.6h1.25l-1.79,5.4h-1.3l-1.79-5.4Z"/>
  </g>
  <g>
    <path class="cls-8" d="M193.87,413.86c-.4-.47-.59-1.15-.59-1.97,0-.84.17-1.55.6-2.06.37-.44.88-.67,1.61-.67,1.08,0,1.71.58,1.87,1.34h-1.13c-.07-.24-.28-.49-.71-.49-.69,0-1.06.52-1.12,1.54h.01c.29-.41.69-.65,1.26-.65.99,0,1.83.74,1.84,1.82,0,1.09-.86,1.84-2.01,1.84-.73,0-1.27-.27-1.63-.71ZM196.39,412.75c0-.55-.4-.95-.93-.95-.58,0-.97.39-.97.94s.42.94.97.94c.52,0,.93-.4.93-.94Z"/>
    <path class="cls-8" d="M198.55,414.13c-.41-.33-.62-.83-.62-1.37h1.12c.04.5.32.91,1.01.91.55,0,.87-.29.87-.77s-.34-.73-.95-.73h-.31v-.83h.28c.53,0,.86-.22.86-.65,0-.38-.29-.64-.74-.64-.59,0-.85.39-.88.79h-1.1c.02-.94.73-1.67,2-1.67,1.1,0,1.88.54,1.88,1.45,0,.54-.34.86-.88,1.04h0c.65.2,1.04.62,1.04,1.31,0,1.1-.94,1.6-2.03,1.6-.68,0-1.17-.16-1.55-.45Z"/>
    <path class="cls-8" d="M203.16,414.13c-.41-.33-.62-.83-.62-1.37h1.12c.04.5.32.91,1.01.91.55,0,.87-.29.87-.77s-.34-.73-.95-.73h-.31v-.83h.28c.53,0,.86-.22.86-.65,0-.38-.29-.64-.74-.64-.59,0-.85.39-.88.79h-1.1c.02-.94.73-1.67,2-1.67,1.1,0,1.88.54,1.88,1.45,0,.54-.34.86-.88,1.04h0c.65.2,1.04.62,1.04,1.31,0,1.1-.94,1.6-2.03,1.6-.68,0-1.17-.16-1.55-.45Z"/>
    <path class="cls-8" d="M208.95,411.77c0-1.61,1.04-2.82,2.65-2.82.6,0,1.11.14,1.48.42.49.36.77.89.84,1.5h-1.24c-.07-.51-.48-.89-1.09-.89-.92,0-1.38.76-1.38,1.79s.54,1.78,1.39,1.78c.66,0,1.07-.43,1.13-.99h1.24c-.04.54-.28,1.04-.65,1.4-.41.4-.96.61-1.71.61-1.58,0-2.65-1.19-2.65-2.8Z"/>
    <path class="cls-8" d="M214.22,409.05h1.29l.8,2.6c.18.6.37,1.59.37,1.59h.01s.19-1,.36-1.59l.79-2.6h1.25l-1.79,5.4h-1.3l-1.79-5.4Z"/>
  </g>
  <g class="cls-15">
    <rect class="cls-6" x="4.12" y="565.78" width="262.14" height=".88" transform="translate(270.38 1132.43) rotate(-180)"/>
  </g>
  <g class="cls-2">
    <rect class="cls-6" x="4.12" y="463.59" width="262.14" height=".88" transform="translate(270.38 928.06) rotate(-180)"/>
  </g>
  <g>
    <path class="cls-14" d="M149.7,476.85h1.7v1.22c0,.68-.04,1.36-.06,1.76l2.78-2.98h2.04l-2.87,2.99,3.05,4.45h-1.99l-2.27-3.37-.68.71v2.66h-1.7v-7.44Z"/>
    <path class="cls-14" d="M156.7,481.64c0-1.6,1.12-2.82,2.82-2.82s2.8,1.22,2.8,2.82-1.11,2.82-2.8,2.82-2.82-1.23-2.82-2.82ZM160.73,481.64c0-1.01-.44-1.7-1.22-1.7s-1.22.69-1.22,1.7.42,1.68,1.22,1.68,1.22-.68,1.22-1.68Z"/>
    <path class="cls-14" d="M163.11,478.97h1.51v.83h.03c.34-.63.85-.98,1.6-.98.7,0,1.19.35,1.46,1.01h.02c.44-.71,1.02-1.01,1.69-1.01,1.18,0,1.79.78,1.79,1.96v3.51h-1.56v-3.25c0-.58-.28-.93-.79-.93-.56,0-.91.47-.91,1.15v3.03h-1.57v-3.25c0-.58-.26-.93-.78-.93-.55,0-.92.47-.92,1.15v3.03h-1.57v-5.32Z"/>
    <path class="cls-14" d="M175.44,483.64h-.02c-.35.49-.79.79-1.61.79-1.05,0-1.82-.56-1.82-1.61,0-1.18.93-1.48,2.09-1.62.95-.13,1.34-.28,1.34-.68s-.25-.64-.79-.64c-.6,0-.89.28-.93.7h-1.45c.04-.91.78-1.76,2.36-1.76.68,0,1.16.1,1.53.32.55.32.81.87.81,1.59v2.73c0,.42.06.65.2.74v.09h-1.53c-.08-.12-.15-.35-.18-.65ZM175.46,482.38v-.69c-.23.14-.57.22-.92.3-.69.15-1.02.32-1.02.78s.35.63.78.63c.7,0,1.16-.44,1.16-1.02Z"/>
    <path class="cls-14" d="M177.7,478.97h.8v-1.7h1.54v1.7h1.04v1h-1.04v2.64c0,.4.22.51.59.51.1,0,.26,0,.36-.02h.08v1.17c-.17.03-.49.08-.91.08-.99,0-1.66-.32-1.66-1.4v-2.98h-.8v-1Z"/>
    <path class="cls-14" d="M181.56,482.65h1.48c.09.5.47.78,1.08.78.56,0,.88-.23.88-.61,0-.48-.63-.54-1.37-.68-.95-.18-1.91-.42-1.91-1.66,0-1.09.99-1.66,2.24-1.66,1.48,0,2.22.64,2.36,1.57h-1.46c-.1-.38-.4-.57-.9-.57s-.79.2-.79.54c0,.4.58.46,1.31.59.95.17,2.03.42,2.03,1.76,0,1.15-1.02,1.75-2.4,1.75-1.54,0-2.47-.74-2.55-1.81Z"/>
    <path class="cls-14" d="M190.75,484.29v-.76h-.03c-.39.62-.87.91-1.6.91-1.21,0-1.87-.78-1.87-1.95v-3.52h1.57v3.22c0,.59.29.93.85.93.63,0,1.02-.48,1.02-1.14v-3.01h1.55v5.32h-1.49Z"/>
    <path class="cls-14" d="M195.47,482.26c0-.84.5-1.51,1.41-1.79v-.03c-.76-.27-1.11-.79-1.11-1.45,0-1.18,1.04-1.97,2.64-1.97s2.62.74,2.62,1.94c0,.64-.36,1.18-1.1,1.44v.03c.94.26,1.42.95,1.42,1.79,0,1.42-1.23,2.24-2.93,2.24s-2.95-.82-2.95-2.2ZM199.7,482.16c0-.69-.48-1.12-1.28-1.12s-1.3.43-1.3,1.12.49,1.08,1.3,1.08,1.28-.43,1.28-1.08ZM199.49,479.07c0-.55-.39-.92-1.09-.92s-1.09.37-1.09.92.4.9,1.09.9,1.09-.36,1.09-.9Z"/>
    <path class="cls-14" d="M202.75,483.84c-.57-.45-.85-1.14-.86-1.89h1.54c.05.69.44,1.25,1.39,1.25.76,0,1.2-.4,1.2-1.06s-.47-1-1.31-1h-.43v-1.14h.39c.73,0,1.18-.31,1.18-.89,0-.53-.4-.88-1.02-.88-.81,0-1.17.54-1.21,1.09h-1.52c.03-1.29,1.01-2.3,2.76-2.3,1.51,0,2.59.74,2.59,2,0,.74-.47,1.18-1.21,1.43v.02c.9.25,1.43.83,1.43,1.78,0,1.51-1.3,2.21-2.79,2.21-.93,0-1.61-.22-2.13-.62Z"/>
    <path class="cls-14" d="M208.21,482.27h1.61c.11.53.56.88,1.24.88.74,0,1.26-.51,1.26-1.25s-.54-1.23-1.23-1.23c-.51,0-.9.21-1.11.47h-1.53l.74-3.97h4.33v1.31h-3.16l-.32,1.57h.02c.33-.36.77-.58,1.47-.58,1.3,0,2.43.94,2.43,2.44s-1.18,2.55-2.84,2.55-2.8-.83-2.91-2.19Z"/>
  </g>
  <g>
    <path class="cls-14" d="M150.04,550.02v-1.38h5.4v1.38h-5.4ZM152,551.95v-5.24h1.47v5.24h-1.47Z"/>
    <path class="cls-14" d="M158.91,553.43c-.55,0-1.1-.07-1.63-.22s-1-.36-1.38-.64l.71-1.39c.3.22.65.4,1.05.53s.8.2,1.22.2c.46,0,.82-.09,1.09-.28.26-.19.4-.44.4-.75s-.12-.54-.35-.71-.61-.26-1.13-.26h-.83v-1.2l2.2-2.52.2.66h-4.16v-1.47h5.56v1.19l-2.2,2.51-.93-.53h.53c.98,0,1.71.22,2.22.66s.75,1,.75,1.68c0,.45-.12.88-.36,1.27-.24.39-.6.71-1.08.95-.48.24-1.11.36-1.87.36Z"/>
    <path class="cls-14" d="M164.23,553.29l3.2-7.23.48.79h-4.26l.79-.86v2.17h-1.62v-2.8h6.36v1.19l-2.95,6.75h-2Z"/>
    <path class="cls-14" d="M177.49,553.43c-.61,0-1.18-.1-1.71-.3s-.98-.49-1.37-.86c-.39-.37-.69-.8-.9-1.3-.21-.5-.32-1.05-.32-1.64s.11-1.15.32-1.64c.22-.5.52-.93.91-1.3.39-.37.85-.66,1.37-.86s1.09-.3,1.71-.3c.69,0,1.31.12,1.87.36s1.03.59,1.41,1.05l-1.19,1.09c-.26-.31-.57-.54-.9-.7-.34-.16-.7-.24-1.09-.24-.37,0-.71.06-1.02.19-.31.12-.58.3-.81.53-.23.23-.4.5-.53.8-.12.31-.19.65-.19,1.03s.06.72.19,1.03c.12.31.3.58.53.8.23.23.5.4.81.53.31.12.65.19,1.02.19.39,0,.76-.08,1.09-.24.34-.16.64-.4.9-.71l1.19,1.09c-.38.46-.85.81-1.41,1.05s-1.19.36-1.88.36Z"/>
    <path class="cls-14" d="M184.34,553.29l-3.44-7.94h2l2.99,7.03h-1.17l3.04-7.03h1.83l-3.44,7.94h-1.81Z"/>
    <path class="cls-14" d="M192.31,554.43l3.74-10.68h1.56l-3.74,10.68h-1.56Z"/>
    <path class="cls-14" d="M201.04,550.02v-1.38h5.4v1.38h-5.4ZM203,551.95v-5.24h1.47v5.24h-1.47Z"/>
    <path class="cls-14" d="M212.01,553.29v-7.26l.79.79h-2.38v-1.47h3.42v7.94h-1.84Z"/>
    <path class="cls-14" d="M218.78,553.43c-.73,0-1.35-.15-1.88-.45s-.94-.74-1.23-1.33c-.29-.59-.44-1.3-.44-2.15,0-.92.17-1.7.52-2.34.34-.63.82-1.12,1.43-1.45.61-.33,1.31-.5,2.12-.5.42,0,.82.05,1.2.14.39.09.72.23,1,.4l-.68,1.35c-.22-.15-.45-.25-.7-.31-.25-.06-.51-.08-.78-.08-.68,0-1.22.21-1.63.63-.41.42-.61,1.03-.61,1.84,0,.14,0,.29.01.45,0,.17.03.33.07.5l-.51-.48c.14-.29.33-.54.56-.74.23-.2.5-.35.81-.45.31-.1.66-.15,1.04-.15.51,0,.97.1,1.38.31s.74.49.98.86c.25.37.37.8.37,1.3,0,.54-.13,1-.4,1.4-.26.4-.62.7-1.08.92-.45.21-.96.32-1.53.32ZM218.67,552.06c.26,0,.49-.05.69-.14.2-.09.36-.23.47-.41s.17-.39.17-.62c0-.36-.12-.65-.37-.87-.25-.22-.57-.32-.98-.32-.27,0-.51.05-.71.16-.2.11-.37.25-.48.42-.12.18-.18.38-.18.62,0,.22.06.42.17.59.11.18.27.32.48.42.2.1.45.15.75.15Z"/>
    <path class="cls-14" d="M225.01,553.43c-.55,0-1.1-.07-1.63-.22-.54-.15-1-.36-1.38-.64l.71-1.39c.3.22.65.4,1.05.53.4.13.8.2,1.22.2.46,0,.82-.09,1.09-.28.26-.19.4-.44.4-.75s-.12-.54-.35-.71-.61-.26-1.13-.26h-.83v-1.2l2.2-2.52.2.66h-4.16v-1.47h5.56v1.19l-2.2,2.51-.93-.53h.53c.97,0,1.71.22,2.22.66.5.44.75,1,.75,1.68,0,.45-.12.88-.36,1.27-.24.39-.6.71-1.08.95-.48.24-1.11.36-1.87.36Z"/>
    <path class="cls-14" d="M232.87,553.29v-7.94h1.52l4.68,5.71h-.74v-5.71h1.81v7.94h-1.52l-4.68-5.71h.74v5.71h-1.81Z"/>
    <path class="cls-14" d="M242.03,553.29v-7.94h1.52l3.38,5.6h-.8l3.31-5.6h1.53v7.94h-1.71l-.02-5.29h.34l-2.68,4.44h-.82l-2.71-4.44h.37v5.29h-1.71Z"/>
  </g>
  <g>
    <path class="cls-14" d="M154.06,500.58c-.34,0-.66-.06-.95-.17-.29-.11-.55-.28-.76-.49-.21-.21-.38-.46-.5-.73s-.18-.58-.18-.92.06-.64.18-.92.29-.52.5-.73c.21-.21.47-.37.76-.49.29-.12.61-.17.96-.17s.66.06.95.17c.29.11.54.28.76.48.21.21.38.45.5.73s.18.59.18.92-.06.64-.18.92c-.12.28-.29.53-.5.73-.21.21-.47.37-.76.48-.29.12-.61.17-.95.17ZM154.06,500.16c.27,0,.52-.05.76-.14.23-.09.43-.23.6-.4s.3-.37.4-.6c.1-.23.14-.48.14-.75s-.05-.52-.14-.75c-.09-.23-.23-.43-.4-.6s-.37-.3-.6-.4c-.23-.09-.48-.14-.76-.14s-.53.05-.76.14c-.23.09-.44.23-.61.4-.17.17-.31.37-.4.6-.09.23-.14.48-.14.75s.05.52.14.75c.1.23.23.43.4.6.17.17.38.3.61.4.23.09.49.14.76.14Z"/>
    <path class="cls-14" d="M157.52,500.54v-4.55h1.7c.38,0,.72.06.99.19.28.12.49.3.64.53.15.23.22.51.22.84s-.08.6-.22.83c-.15.23-.36.41-.64.53-.28.12-.61.18-.99.18h-1.44l.21-.22v1.66h-.48ZM158,498.92l-.21-.23h1.42c.45,0,.8-.1,1.04-.3.24-.2.35-.48.35-.84s-.12-.65-.35-.84c-.24-.2-.58-.3-1.04-.3h-1.42l.21-.23v2.73ZM160.63,500.54l-1.17-1.65h.52l1.18,1.65h-.53Z"/>
    <path class="cls-14" d="M162.22,500.54v-4.55h.48v4.55h-.48Z"/>
    <path class="cls-14" d="M166.17,500.58c-.35,0-.67-.06-.96-.17-.29-.11-.55-.28-.76-.48-.21-.21-.38-.45-.5-.73-.12-.28-.18-.59-.18-.92s.06-.64.18-.92.29-.53.5-.73.47-.37.76-.48c.29-.12.61-.17.96-.17s.66.05.95.16c.29.11.53.27.74.49l-.3.31c-.19-.19-.4-.33-.63-.41s-.48-.12-.74-.12c-.28,0-.54.05-.78.14-.24.09-.44.23-.62.4-.18.17-.31.37-.41.6-.1.23-.15.48-.15.75s.05.52.15.75c.1.23.23.43.41.6.17.17.38.3.62.4.24.09.49.14.77.14.26,0,.5-.04.74-.12s.45-.21.64-.4l.27.36c-.22.19-.47.33-.76.43s-.59.15-.91.15ZM167.38,499.95v-1.68h.46v1.73l-.46-.06Z"/>
    <path class="cls-14" d="M169.21,500.58c-.09,0-.18-.03-.24-.1-.07-.07-.1-.15-.1-.25s.03-.19.1-.25c.07-.07.15-.1.24-.1s.18.03.24.1c.07.06.1.15.1.25s-.03.18-.1.25c-.07.07-.15.1-.24.1Z"/>
  </g>
  <g>
    <path class="cls-14" d="M194.44,500.58c-.34,0-.66-.06-.95-.17-.29-.11-.54-.28-.76-.49-.21-.21-.38-.46-.5-.73s-.18-.58-.18-.92.06-.64.18-.92.29-.52.5-.73c.21-.21.47-.37.76-.49.29-.12.61-.17.95-.17s.66.06.95.17c.29.11.54.28.76.48.21.21.38.45.5.73s.18.59.18.92-.06.64-.18.92c-.12.28-.29.53-.5.73-.21.21-.47.37-.76.48-.29.12-.61.17-.95.17ZM194.44,500.16c.27,0,.53-.05.76-.14.23-.09.43-.23.6-.4.17-.17.3-.37.4-.6.09-.23.14-.48.14-.75s-.05-.52-.14-.75c-.1-.23-.23-.43-.4-.6-.17-.17-.37-.3-.6-.4-.23-.09-.48-.14-.76-.14s-.53.05-.76.14c-.23.09-.44.23-.61.4s-.31.37-.4.6c-.1.23-.14.48-.14.75s.05.52.14.75c.09.23.23.43.4.6s.38.3.61.4c.23.09.49.14.76.14Z"/>
    <path class="cls-14" d="M197.91,500.54v-4.55h1.7c.39,0,.72.06.99.19s.49.3.64.53c.15.23.22.51.22.84s-.07.6-.22.83c-.15.23-.36.41-.64.54-.28.13-.61.19-.99.19h-1.43l.21-.23v1.66h-.48ZM198.39,498.92l-.21-.23h1.42c.46,0,.8-.1,1.04-.3.24-.2.35-.47.35-.83s-.12-.65-.35-.84c-.24-.2-.58-.3-1.04-.3h-1.42l.21-.23v2.73Z"/>
    <path class="cls-14" d="M203.24,500.54v-4.13h-1.6v-.42h3.68v.42h-1.6v4.13h-.48Z"/>
    <path class="cls-14" d="M205.83,500.58c-.1,0-.18-.03-.24-.1-.07-.07-.1-.15-.1-.25s.03-.19.1-.25c.07-.07.15-.1.24-.1s.18.03.24.1c.07.06.1.15.1.25s-.03.18-.1.25-.15.1-.24.1Z"/>
  </g>
  <rect class="cls-14" x="149.52" y="506.58" width="36.47" height="14.2"/>
  <rect class="cls-14" x="186.75" y="506.58" width="37.75" height="14.2"/>
  <rect class="cls-14" x="149.52" y="521.6" width="36.47" height="14.2"/>
  <rect class="cls-14" x="186.75" y="521.6" width="37.75" height="14.2"/>
  <g>
    <path class="cls-8" d="M160.34,512.99h-1.2v-.79c.75-.02,1.32-.34,1.45-1.05h.94v5.22h-1.18v-3.38Z"/>
    <path class="cls-8" d="M164.93,512.17h0s-.66.03-1.25.03h-1.39v-1h3.8v.91c-.94.92-1.79,2.45-1.84,4.26h-1.25c.09-1.87,1.08-3.43,1.94-4.2Z"/>
    <path class="cls-8" d="M167.07,516.04c-.41-.33-.62-.83-.62-1.37h1.12c.04.5.32.91,1.01.91.55,0,.87-.29.87-.77s-.34-.73-.95-.73h-.31v-.83h.28c.53,0,.86-.23.86-.65,0-.39-.29-.64-.74-.64-.59,0-.85.39-.88.79h-1.1c.02-.94.73-1.67,2-1.67,1.1,0,1.88.54,1.88,1.45,0,.54-.34.86-.88,1.04h0c.65.2,1.04.62,1.04,1.31,0,1.1-.94,1.61-2.03,1.61-.68,0-1.17-.16-1.55-.45Z"/>
    <path class="cls-8" d="M172.85,513.69c0-1.61,1.04-2.82,2.65-2.82.6,0,1.11.15,1.48.42.49.36.77.89.84,1.5h-1.24c-.07-.51-.48-.89-1.09-.89-.92,0-1.38.76-1.38,1.79s.54,1.78,1.39,1.78c.66,0,1.07-.43,1.13-.99h1.24c-.04.54-.28,1.04-.65,1.4-.41.4-.96.61-1.71.61-1.58,0-2.65-1.19-2.65-2.8Z"/>
    <path class="cls-8" d="M178.12,510.96h1.29l.8,2.6c.18.6.37,1.59.37,1.59h.01s.19-1,.36-1.59l.79-2.6h1.25l-1.79,5.4h-1.3l-1.79-5.4Z"/>
  </g>
  <g>
    <path class="cls-8" d="M158.48,527.14h0s-.66.03-1.25.03h-1.39v-1h3.8v.91c-.94.92-1.79,2.45-1.84,4.26h-1.25c.09-1.87,1.07-3.43,1.94-4.2Z"/>
    <path class="cls-8" d="M159.97,529.87h1.17c.08.39.41.64.9.64.54,0,.92-.37.92-.91s-.39-.89-.89-.89c-.37,0-.65.15-.81.34h-1.11l.54-2.88h3.15v.95h-2.29l-.23,1.14h.01c.24-.26.56-.42,1.07-.42.94,0,1.76.68,1.76,1.77s-.86,1.85-2.06,1.85-2.03-.6-2.11-1.59Z"/>
    <path class="cls-8" d="M164.65,528.76c0-1.65.92-2.7,2.25-2.7s2.25,1.05,2.25,2.7-.89,2.7-2.26,2.7-2.24-1.05-2.24-2.7ZM167.93,528.76c0-1.06-.3-1.78-1.03-1.78s-1.03.72-1.03,1.78.31,1.77,1.03,1.77,1.03-.71,1.03-1.77Z"/>
    <path class="cls-8" d="M171.62,525.93h1.26l1.42,2.35c.32.54.74,1.42.74,1.42h.01s-.07-.97-.07-1.58v-2.19h1.18v5.4h-1.27l-1.41-2.32c-.33-.54-.75-1.45-.75-1.45h-.01s.07.97.07,1.59v2.17h-1.18v-5.4Z"/>
    <path class="cls-8" d="M177.08,525.93h1.66l.67,2.25c.2.68.41,1.92.41,1.92h.02s.2-1.25.4-1.92l.66-2.25h1.69v5.4h-1.14v-2.42c0-.68.09-1.95.09-1.95h-.01s-.23,1.15-.42,1.79l-.77,2.57h-1.02l-.78-2.57c-.19-.64-.42-1.79-.42-1.79h-.01s.09,1.26.09,1.95v2.42h-1.11v-5.4Z"/>
  </g>
  <g>
    <path class="cls-8" d="M194.73,530.1h1.13c.06.24.3.5.76.5.35,0,.61-.13.79-.42.15-.24.24-.6.27-1.08h-.01c-.3.38-.69.61-1.23.61-1.03,0-1.87-.73-1.87-1.82s.86-1.83,2.05-1.83c.59,0,1.1.18,1.45.5.49.44.73,1.16.73,2.17,0,.89-.17,1.65-.6,2.12-.36.4-.86.62-1.54.62-1.1,0-1.82-.6-1.92-1.36ZM197.61,527.89c0-.55-.41-.95-.96-.95s-.96.41-.96.94.37.95.95.95.97-.39.97-.94Z"/>
    <path class="cls-8" d="M200.51,527.96h-1.2v-.79c.76-.02,1.32-.34,1.45-1.05h.94v5.22h-1.18v-3.38Z"/>
    <path class="cls-8" d="M203.06,531.01c-.41-.33-.62-.83-.62-1.37h1.12c.04.5.32.91,1.01.91.55,0,.87-.29.87-.77s-.34-.73-.95-.73h-.31v-.83h.28c.53,0,.86-.23.86-.65,0-.39-.29-.64-.74-.64-.59,0-.85.39-.88.79h-1.1c.02-.94.73-1.67,2.01-1.67,1.1,0,1.88.54,1.88,1.45,0,.54-.34.86-.88,1.04h0c.65.2,1.04.62,1.04,1.31,0,1.1-.95,1.61-2.03,1.61-.68,0-1.17-.16-1.55-.45Z"/>
    <path class="cls-8" d="M209.07,525.93h1.26l1.42,2.35c.32.54.74,1.42.74,1.42h.01s-.06-.97-.06-1.58v-2.19h1.18v5.4h-1.27l-1.41-2.32c-.33-.54-.75-1.45-.75-1.45h-.02s.07.97.07,1.59v2.17h-1.18v-5.4Z"/>
    <path class="cls-8" d="M214.54,525.93h1.66l.68,2.25c.2.68.41,1.92.41,1.92h.02s.2-1.25.4-1.92l.66-2.25h1.69v5.4h-1.14v-2.42c0-.68.09-1.95.09-1.95h-.01s-.23,1.16-.42,1.79l-.77,2.57h-1.02l-.78-2.57c-.19-.64-.42-1.79-.42-1.79h-.01s.09,1.26.09,1.95v2.42h-1.11v-5.4Z"/>
  </g>
  <g>
    <path class="cls-8" d="M195.33,514.93c.48-.53,1.16-.94,1.69-1.32.33-.24.53-.47.53-.83,0-.44-.26-.73-.71-.73-.27,0-.46.07-.6.24-.17.18-.24.44-.24.76h-1.13c0-.52.11-.9.35-1.24.3-.44.86-.72,1.66-.72,1.21,0,1.87.73,1.87,1.65,0,.6-.27.99-.65,1.31-.54.49-1.32.81-1.73,1.31v.02h2.37v.99h-3.95c0-.64.2-1.05.54-1.44Z"/>
    <path class="cls-8" d="M200.42,512.99h-1.2v-.79c.76-.02,1.32-.34,1.45-1.05h.94v5.22h-1.18v-3.38Z"/>
    <path class="cls-8" d="M202.42,513.79c0-1.65.92-2.7,2.25-2.7s2.25,1.05,2.25,2.7-.89,2.7-2.26,2.7-2.24-1.05-2.24-2.7ZM205.7,513.79c0-1.06-.3-1.78-1.03-1.78s-1.03.72-1.03,1.78.3,1.76,1.03,1.76,1.03-.7,1.03-1.76Z"/>
    <path class="cls-8" d="M209.16,513.69c0-1.61,1.04-2.82,2.65-2.82.6,0,1.11.15,1.48.42.49.36.77.89.84,1.5h-1.24c-.07-.51-.48-.89-1.09-.89-.92,0-1.38.76-1.38,1.79s.54,1.78,1.39,1.78c.66,0,1.07-.43,1.13-.99h1.24c-.04.54-.28,1.04-.65,1.4-.41.4-.96.61-1.71.61-1.58,0-2.65-1.19-2.65-2.8Z"/>
    <path class="cls-8" d="M214.43,510.96h1.29l.8,2.6c.18.6.37,1.59.37,1.59h.01s.19-1,.36-1.59l.79-2.6h1.25l-1.79,5.4h-1.3l-1.79-5.4Z"/>
  </g>
  <g>
    <path class="cls-14" d="M149.32,276.75c0-2.22,1.43-3.88,3.65-3.88.82,0,1.53.2,2.04.58.67.49,1.06,1.22,1.15,2.06h-1.7c-.1-.7-.66-1.22-1.5-1.22-1.27,0-1.9,1.05-1.9,2.46s.74,2.45,1.91,2.45c.91,0,1.47-.59,1.55-1.36h1.71c-.05.74-.39,1.43-.9,1.93-.56.55-1.32.84-2.36.84-2.17,0-3.65-1.64-3.65-3.86Z"/>
    <path class="cls-14" d="M157.03,273h1.58v7.44h-1.58v-7.44Z"/>
    <path class="cls-14" d="M162.88,279.78h-.02c-.35.49-.79.79-1.61.79-1.05,0-1.82-.56-1.82-1.61,0-1.18.93-1.48,2.09-1.62.95-.13,1.34-.28,1.34-.68s-.25-.64-.79-.64c-.6,0-.89.28-.93.7h-1.45c.04-.91.78-1.76,2.36-1.76.68,0,1.16.1,1.53.32.55.32.81.87.81,1.59v2.73c0,.42.06.65.2.74v.09h-1.53c-.08-.12-.15-.35-.18-.65ZM162.9,278.52v-.69c-.23.14-.57.22-.92.3-.69.15-1.02.32-1.02.78s.35.63.78.63c.7,0,1.16-.44,1.16-1.02Z"/>
    <path class="cls-14" d="M168.68,279.78h-.02c-.35.49-.79.79-1.61.79-1.05,0-1.82-.56-1.82-1.61,0-1.18.93-1.48,2.09-1.62.95-.13,1.34-.28,1.34-.68s-.25-.64-.79-.64c-.6,0-.89.28-.93.7h-1.45c.04-.91.78-1.76,2.36-1.76.68,0,1.16.1,1.53.32.55.32.81.87.81,1.59v2.73c0,.42.06.65.2.74v.09h-1.53c-.08-.12-.15-.35-.18-.65ZM168.7,278.52v-.69c-.23.14-.57.22-.92.3-.69.15-1.02.32-1.02.78s.35.63.78.63c.7,0,1.16-.44,1.16-1.02Z"/>
    <path class="cls-14" d="M170.92,278.79h1.48c.09.5.47.78,1.08.78.56,0,.88-.23.88-.61,0-.48-.63-.54-1.37-.68-.95-.18-1.91-.42-1.91-1.66,0-1.09.99-1.66,2.24-1.66,1.48,0,2.22.64,2.36,1.57h-1.46c-.1-.38-.4-.57-.9-.57s-.79.2-.79.54c0,.4.58.46,1.31.59.95.17,2.03.42,2.03,1.76,0,1.15-1.02,1.75-2.4,1.75-1.54,0-2.47-.74-2.55-1.81Z"/>
    <path class="cls-14" d="M179.17,273h1.7v5.98h3.43v1.46h-5.13v-7.44Z"/>
    <path class="cls-14" d="M184.85,277.79c0-1.6,1.11-2.82,2.73-2.82.76,0,1.36.25,1.83.68.6.58.87,1.48.86,2.53h-3.88c.1.8.53,1.28,1.29,1.28.49,0,.8-.19.97-.52h1.52c-.27.94-1.14,1.66-2.51,1.66-1.74,0-2.81-1.22-2.81-2.81ZM186.39,277.27h2.27c-.05-.74-.47-1.19-1.09-1.19-.72,0-1.08.46-1.18,1.19Z"/>
    <path class="cls-14" d="M192.58,277.65l-1.69-2.53h1.79l.31.5c.26.44.56,1.13.56,1.13h.02s.3-.69.54-1.13l.29-.5h1.66l-1.63,2.5,1.87,2.82h-1.82l-.41-.68c-.25-.45-.58-1.18-.58-1.18h-.02s-.34.73-.62,1.18l-.43.68h-1.71l1.87-2.79Z"/>
    <path class="cls-14" d="M196.98,273h1.59v1.37h-1.59v-1.37ZM196.99,275.12h1.57v5.32h-1.57v-5.32Z"/>
    <path class="cls-14" d="M199.35,277.79c0-1.6,1.12-2.82,2.82-2.82s2.8,1.22,2.8,2.82-1.11,2.82-2.8,2.82-2.82-1.23-2.82-2.82ZM203.37,277.79c0-1.01-.44-1.7-1.22-1.7s-1.22.69-1.22,1.7.42,1.68,1.22,1.68,1.22-.68,1.22-1.68Z"/>
    <path class="cls-14" d="M207.27,275.93h.03c.33-.64.9-.96,1.64-.96,1.17,0,1.85.78,1.85,1.97v3.5h-1.56v-3.2c0-.58-.31-.97-.89-.97-.61,0-1.02.49-1.02,1.17v3h-1.57v-5.32h1.52v.81Z"/>
    <path class="cls-14" d="M217.6,274.66v-.02s-.91.06-1.72.06h-1.92v-1.38h5.23v1.25c-1.29,1.27-2.46,3.37-2.54,5.87h-1.72c.12-2.58,1.48-4.72,2.67-5.78Z"/>
    <path class="cls-14" d="M223.36,274.66v-.02s-.91.06-1.72.06h-1.92v-1.38h5.23v1.25c-1.29,1.27-2.46,3.37-2.54,5.87h-1.72c.12-2.58,1.48-4.72,2.67-5.78Z"/>
    <path class="cls-14" d="M225.56,276.89c0-2.27,1.26-3.72,3.1-3.72s3.1,1.44,3.1,3.72-1.23,3.72-3.11,3.72-3.09-1.45-3.09-3.72ZM230.08,276.89c0-1.46-.41-2.45-1.42-2.45s-1.42.99-1.42,2.45.42,2.43,1.42,2.43,1.42-.97,1.42-2.43Z"/>
  </g>
  <g>
    <path class="cls-14" d="M150.04,346.16v-1.38h5.4v1.38h-5.4ZM152,348.09v-5.24h1.47v5.24h-1.47Z"/>
    <path class="cls-14" d="M156.53,347.77v-1.24l3.74-5.03h1.93l-3.65,5.03-.91-.26h6.25v1.5h-7.36ZM160.8,349.44v-1.67l.06-1.5v-1.49h1.73v4.65h-1.79Z"/>
    <path class="cls-14" d="M164.34,347.77v-1.24l3.74-5.03h1.93l-3.65,5.03-.91-.26h6.25v1.5h-7.36ZM168.61,349.44v-1.67l.06-1.5v-1.49h1.73v4.65h-1.79Z"/>
    <path class="cls-14" d="M179.75,349.58c-.61,0-1.18-.1-1.71-.3s-.98-.49-1.37-.86c-.39-.37-.69-.8-.9-1.3s-.32-1.05-.32-1.64.11-1.15.32-1.64.52-.93.91-1.3c.39-.37.85-.66,1.37-.86s1.09-.3,1.71-.3c.69,0,1.31.12,1.87.36s1.03.59,1.41,1.05l-1.19,1.09c-.27-.31-.57-.54-.9-.7-.34-.16-.7-.24-1.09-.24-.37,0-.71.06-1.02.19-.31.12-.58.3-.8.53-.23.23-.4.5-.53.8s-.19.65-.19,1.03.06.72.19,1.03c.12.31.3.58.53.8.23.23.5.4.8.53.31.12.65.19,1.02.19.39,0,.76-.08,1.09-.24.34-.16.64-.4.9-.71l1.19,1.09c-.38.46-.85.81-1.41,1.05s-1.19.36-1.88.36Z"/>
    <path class="cls-14" d="M186.6,349.44l-3.44-7.94h2l2.99,7.03h-1.17l3.04-7.03h1.83l-3.44,7.94h-1.81Z"/>
  </g>
  <g>
    <path class="cls-14" d="M153.99,296.73c-.34,0-.66-.06-.95-.17-.29-.11-.54-.28-.76-.49-.21-.21-.38-.46-.5-.73s-.18-.58-.18-.92.06-.64.18-.92.29-.52.5-.73c.21-.21.47-.37.76-.49.29-.12.61-.17.95-.17s.66.06.95.17c.29.11.54.28.76.48.21.21.38.45.5.73s.18.59.18.92-.06.64-.18.92c-.12.28-.29.53-.5.73-.21.21-.47.37-.76.48-.29.12-.61.17-.95.17ZM153.99,296.3c.27,0,.53-.05.76-.14.23-.09.43-.23.6-.4.17-.17.3-.37.4-.6.09-.23.14-.48.14-.75s-.05-.52-.14-.75c-.1-.23-.23-.43-.4-.6-.17-.17-.37-.3-.6-.4-.23-.09-.48-.14-.76-.14s-.53.05-.76.14c-.23.09-.44.23-.61.4s-.31.37-.4.6c-.1.23-.14.48-.14.75s.05.52.14.75c.09.23.23.43.4.6s.38.3.61.4c.23.09.49.14.76.14Z"/>
    <path class="cls-14" d="M157.45,296.69v-4.55h1.7c.39,0,.72.06.99.19s.49.3.64.53c.15.23.22.51.22.84s-.07.6-.22.83c-.15.23-.36.41-.64.53-.28.12-.61.18-.99.18h-1.43l.21-.22v1.66h-.48ZM157.93,295.07l-.21-.23h1.42c.46,0,.8-.1,1.04-.3.24-.2.35-.48.35-.84s-.12-.65-.35-.84c-.24-.2-.58-.3-1.04-.3h-1.42l.21-.23v2.73ZM160.55,296.69l-1.17-1.65h.52l1.17,1.65h-.53Z"/>
    <path class="cls-14" d="M162.14,296.69v-4.55h.48v4.55h-.48Z"/>
    <path class="cls-14" d="M166.1,296.73c-.35,0-.67-.06-.96-.17-.29-.11-.54-.28-.76-.48-.21-.21-.38-.45-.5-.73-.12-.28-.18-.59-.18-.92s.06-.64.18-.92.29-.53.5-.73c.22-.21.47-.37.76-.48.29-.12.61-.17.96-.17s.66.05.95.16.53.27.74.49l-.3.31c-.19-.19-.4-.33-.63-.41s-.48-.12-.74-.12c-.28,0-.54.05-.78.14-.24.09-.44.23-.62.4-.17.17-.31.37-.41.6s-.15.48-.15.75.05.52.15.75.23.43.41.6c.18.17.38.3.62.4.24.09.49.14.77.14.26,0,.51-.04.74-.12s.44-.21.64-.4l.27.36c-.22.19-.47.33-.76.43s-.59.15-.91.15ZM167.31,296.09v-1.68h.46v1.73l-.46-.06Z"/>
    <path class="cls-14" d="M169.14,296.72c-.1,0-.18-.03-.24-.1-.07-.07-.1-.15-.1-.25s.03-.19.1-.25c.07-.07.15-.1.24-.1s.18.03.24.1c.07.06.1.15.1.25s-.03.18-.1.25-.15.1-.24.1Z"/>
  </g>
  <g>
    <path class="cls-14" d="M194.37,296.73c-.34,0-.66-.06-.95-.17-.29-.11-.54-.28-.76-.49-.21-.21-.38-.46-.5-.73s-.18-.58-.18-.92.06-.64.18-.92.29-.52.5-.73c.21-.21.47-.37.76-.49.29-.12.61-.17.95-.17s.66.06.95.17c.29.11.54.28.76.48.21.21.38.45.5.73s.18.59.18.92-.06.64-.18.92c-.12.28-.29.53-.5.73-.21.21-.47.37-.76.48-.29.12-.61.17-.95.17ZM194.37,296.3c.27,0,.53-.05.76-.14.23-.09.43-.23.6-.4.17-.17.3-.37.4-.6.09-.23.14-.48.14-.75s-.05-.52-.14-.75c-.1-.23-.23-.43-.4-.6-.17-.17-.37-.3-.6-.4-.23-.09-.48-.14-.76-.14s-.53.05-.76.14c-.23.09-.44.23-.61.4s-.31.37-.4.6c-.1.23-.14.48-.14.75s.05.52.14.75c.09.23.23.43.4.6s.38.3.61.4c.23.09.49.14.76.14Z"/>
    <path class="cls-14" d="M197.83,296.69v-4.55h1.7c.39,0,.72.06.99.19s.49.3.64.53c.15.23.22.51.22.84s-.07.6-.22.83c-.15.23-.36.41-.64.54-.28.13-.61.19-.99.19h-1.43l.21-.23v1.66h-.48ZM198.31,295.07l-.21-.23h1.42c.46,0,.8-.1,1.04-.3.24-.2.35-.47.35-.83s-.12-.65-.35-.84c-.24-.2-.58-.3-1.04-.3h-1.42l.21-.23v2.73Z"/>
    <path class="cls-14" d="M203.16,296.69v-4.13h-1.6v-.42h3.68v.42h-1.6v4.13h-.48Z"/>
    <path class="cls-14" d="M205.76,296.72c-.1,0-.18-.03-.24-.1-.07-.07-.1-.15-.1-.25s.03-.19.1-.25c.07-.07.15-.1.24-.1s.18.03.24.1c.07.06.1.15.1.25s-.03.18-.1.25-.15.1-.24.1Z"/>
  </g>
  <rect class="cls-14" x="149.45" y="302.73" width="36.47" height="14.2"/>
  <rect class="cls-14" x="186.68" y="302.73" width="37.75" height="14.2"/>
  <g>
    <path class="cls-8" d="M155.83,311.05h1.17c.08.38.41.64.9.64.54,0,.92-.37.92-.91s-.39-.89-.89-.89c-.37,0-.65.15-.81.34h-1.11l.54-2.88h3.14v.95h-2.29l-.23,1.14h.01c.24-.26.56-.42,1.07-.42.94,0,1.76.68,1.76,1.77s-.86,1.85-2.06,1.85-2.03-.6-2.11-1.59Z"/>
    <path class="cls-8" d="M163.05,311.35h-2.43v-1.05l2.43-3.01h1.13v3.19h.77v.87h-.77v1.17h-1.14v-1.17ZM162.16,310.47h.89v-1.25c0-.3.04-.79.04-.79h-.01s-.29.45-.51.72l-.55.69c-.21.26-.6.66-.6.66h0s.45-.03.74-.03Z"/>
    <path class="cls-8" d="M165.25,309.94c0-1.65.92-2.7,2.25-2.7s2.25,1.05,2.25,2.7-.89,2.7-2.26,2.7-2.24-1.05-2.24-2.7ZM168.53,309.94c0-1.06-.3-1.78-1.03-1.78s-1.03.72-1.03,1.78.31,1.76,1.03,1.76,1.03-.7,1.03-1.76Z"/>
    <path class="cls-8" d="M172,309.83c0-1.61,1.04-2.82,2.65-2.82.6,0,1.11.15,1.48.42.49.36.77.89.83,1.5h-1.23c-.07-.51-.48-.89-1.09-.89-.92,0-1.38.76-1.38,1.79s.54,1.78,1.39,1.78c.66,0,1.07-.43,1.13-.99h1.24c-.04.54-.28,1.04-.65,1.4-.41.4-.96.61-1.71.61-1.58,0-2.65-1.19-2.65-2.8Z"/>
    <path class="cls-8" d="M177.27,307.11h1.29l.8,2.6c.18.6.37,1.59.37,1.59h.01s.19-1,.36-1.59l.79-2.6h1.25l-1.79,5.4h-1.3l-1.79-5.4Z"/>
  </g>
  <g>
    <path class="cls-8" d="M193.09,311.05h1.17c.08.38.41.64.9.64.54,0,.92-.37.92-.91s-.39-.89-.89-.89c-.37,0-.65.15-.81.34h-1.11l.54-2.88h3.15v.95h-2.3l-.23,1.14h.01c.24-.26.56-.42,1.07-.42.94,0,1.76.68,1.76,1.77s-.86,1.85-2.06,1.85-2.03-.6-2.11-1.59Z"/>
    <path class="cls-8" d="M197.72,311.04c0-.61.36-1.1,1.02-1.3v-.02c-.55-.2-.81-.57-.81-1.05,0-.86.76-1.43,1.92-1.43s1.9.54,1.9,1.41c0,.46-.26.86-.8,1.05v.02c.68.19,1.03.69,1.03,1.3,0,1.03-.89,1.63-2.13,1.63s-2.14-.6-2.14-1.6ZM200.79,310.97c0-.5-.35-.81-.93-.81s-.94.31-.94.81.36.78.94.78.93-.31.93-.78ZM200.64,308.72c0-.4-.28-.67-.79-.67s-.79.27-.79.67.29.65.79.65.79-.26.79-.65Z"/>
    <path class="cls-8" d="M205.01,311.35h-2.43v-1.05l2.43-3.01h1.13v3.19h.77v.87h-.77v1.17h-1.14v-1.17ZM204.11,310.47h.89v-1.25c0-.3.04-.79.04-.79h-.01s-.29.45-.51.72l-.55.69c-.21.26-.6.66-.6.66h0s.45-.03.74-.03Z"/>
    <path class="cls-8" d="M208.93,309.83c0-1.61,1.04-2.82,2.65-2.82.6,0,1.11.15,1.48.42.49.36.77.89.83,1.5h-1.23c-.07-.51-.48-.89-1.09-.89-.92,0-1.38.76-1.38,1.79s.54,1.78,1.39,1.78c.66,0,1.07-.43,1.13-.99h1.24c-.04.54-.28,1.04-.65,1.4-.41.4-.96.61-1.71.61-1.58,0-2.65-1.19-2.65-2.8Z"/>
    <path class="cls-8" d="M214.2,307.11h1.29l.8,2.6c.18.6.37,1.59.37,1.59h.01s.19-1,.36-1.59l.79-2.6h1.25l-1.79,5.4h-1.3l-1.79-5.4Z"/>
  </g>
  <image width="231" height="155" transform="translate(24.17 169.59) scale(.5)" xlink:href="https://www.agroecopower.fr/img/agro/logo.png?v=1"/>
  <image width="231" height="155" transform="translate(24.2 476.52) scale(.5)" xlink:href="https://raw.githubusercontent.com/MartinZemanek/icons/main/LP/traktory/fr/6.jpg"/>
  <image width="229" height="154" transform="translate(24.56 68.51) scale(.5)" xlink:href="https://raw.githubusercontent.com/MartinZemanek/icons/main/LP/traktory/fr/1.jpg"/>
  <image width="231" height="154" transform="translate(24.05 272.56) scale(.5)" xlink:href="https://raw.githubusercontent.com/MartinZemanek/icons/main/LP/traktory/fr/4.jpg"/>
  <image width="231" height="154" transform="translate(24.09 374.5) scale(.5)" xlink:href="https://raw.githubusercontent.com/MartinZemanek/icons/main/LP/traktory/fr/5.jpg"/>
</svg>